<svg xmlns="http://www.w3.org/2000/svg" width="26" height="22" viewBox="0 0 26 22"><defs><style>.cls-1 { fill: #fff; fill-rule: evenodd; }</style></defs><path id="Chat" class="cls-1" d="M25 19s-2.7.01-5.014.01c.01.96.008 2.472-.013 2.61a.734.734 0 0 1-.96.29A11.147 11.147 0 0 1 16.94 19H12c-.827 0-.985-.32-.985-1.153v-.863c.242.01 1.033.028 1.033.028l-.034.977 5.923.01L19 20v-1.994h6V9.02h-6.02v-.985h5.52A1.245 1.245 0 0 1 26 9.2v8.654c0 .83-.173 1.146-1 1.146zm-13.985-2.025h-1.61c-.69.61-1.97 1.73-2.668 2.308A.7.7 0 0 1 5.81 19c-.02-.138-.024-1.058-.013-2.017H1.125A.942.942 0 0 1 0 15.847V1.1C0 .268.14 0 .967 0H17.95c.826 0 1.028.237 1.028 1.07v14.153a1.817 1.817 0 0 1-1.59 1.756h-6.375v.004c-.08-.003-.1-.005.002-.005zm6.94-1L17.99 1.02 1 1.036V15.98h5.945l.012 1.96 2.02-1.96h8.976zm-13.3-4.4v-.035a.54.54 0 0 1 .512-.545h9.065a.557.557 0 0 1 .51.563v.026a.456.456 0 0 1-.51.443H5.167a.456.456 0 0 1-.51-.444zm7.33-5.55H5.168a.456.456 0 0 1-.51-.443v-.036A.54.54 0 0 1 5.166 5h6.82a.557.557 0 0 1 .51.563v.027a.457.457 0 0 1-.51.443zm-6.818 1.98H9.74a.528.528 0 0 1 .51.533v.025a.456.456 0 0 1-.51.443H5.167a.456.456 0 0 1-.51-.443v-.036a.512.512 0 0 1 .51-.514z"/></svg>