<svg xmlns="http://www.w3.org/2000/svg" width="23.875" height="23" viewBox="0 0 23.875 23"><defs><style>.cls-1 { fill: #c7cdd9; fill-rule: evenodd; }</style></defs><path id="Feed" class="cls-1" d="M19.473 12.7a.606.606 0 0 0-.58.708v8.572h-3.987v-4.352a.693.693 0 0 0-.67-.694H9.58a.71.71 0 0 0-.707.694v4.352H4.88v-8.656c0-.373 0-.617-.395-.617a.573.573 0 0 0-.6.617v8.994a.68.68 0 0 0 .67.682h4.7a.682.682 0 0 0 .67-.682v-4.2h3.98v4.2a.686.686 0 0 0 .7.682h4.632a.68.68 0 0 0 .67-.682v-8.91c0-.4-.068-.708-.434-.708zm4.31-.853l-5.867-5.853V1.8c0-.4-.11-.573-.5-.573a.5.5 0 0 0-.533.594V4.8L12.406.215A.66.66 0 0 0 11.94 0a.682.682 0 0 0-.493.22L.097 11.77c-.274.277.163.55.453.8.253.3.815-.28 1.087-.556l10.27-10.966L22.59 12.365a.863.863 0 0 0 .542.282.354.354 0 0 0 .344-.046c.254-.256.58-.474.308-.753z"/></svg>