<svg xmlns="http://www.w3.org/2000/svg" preserveAspectRatio="xMidYMid" width="130" height="39" viewBox="0 0 130 39"><defs><style>.cls-2 { fill: #ffffff; }</style></defs><path d="M125 15.005c-2.76 0-5-2.24-5-4.998 0-2.782 2.24-5 5-5 2.78 0 4.997 2.218 4.997 5 0 2.758-2.216 4.998-4.998 4.998zm0-9.313c-2.406 0-4.34 1.91-4.34 4.315 0 2.38 1.934 4.338 4.34 4.338 2.38 0 4.313-1.957 4.313-4.338 0-2.405-1.933-4.315-4.314-4.315zm-1.157 4.928v2.263h-.754v-5.73h2.333c.967 0 1.816.685 1.816 1.746 0 1.272-1.133 1.696-1.463 1.696l1.532 2.287h-.944l-1.485-2.263h-1.037zm2.618-1.72c0-.638-.542-1.086-1.037-1.086h-1.58v2.122h1.58c.495 0 1.038-.448 1.038-1.037zm-3.92 25.47c-.175.312-.316.624-.386.9-.105.277-.14.52-.14.727 0 .312.105.554.316.762.21.172.457.276.81.276.843 0 1.83-.45 2.92-1.28 1.09-.866 2.216-2.043 3.377-3.6l.563.103-1.337 5.967h-13.686l7.247-13.548c.352-.624.6-1.11.74-1.524.175-.415.245-.874.245-1.15 0-.312-.07-.554-.247-.727-.176-.21-.422-.278-.74-.278-.773 0-1.687.562-2.708 1.462-.985.865-2.005 2.11-3.025 3.67l-.563-.07 1.372-6.268h12.63l-7.39 14.575zm-16.843.312c.81 1.42 2.04 2 3.66 2 1.125 0 2.145-.408 3.025-1.515.88-1.108 1.513-2.63 1.9-4.57l.88.658c-.388 2.354-1.302 4.19-2.674 5.538-1.408 1.35-3.096 1.86-5.137 1.86-2.32 0-4.256-.787-5.77-2.62-1.547-1.87-2.32-4.19-2.32-7.027 0-2.7.773-4.915 2.356-6.715 1.584-1.764 3.554-2.504 5.946-2.504 2.287 0 4.152.567 5.524 1.95 1.372 1.35 2.075 3.367 2.075 5.686h-10.694v.934c0 2.873.422 4.907 1.23 6.326zm4.082-8.874c0-1.627-.213-2.93-.635-3.794-.387-.865-.985-1.043-1.76-1.043-.808 0-1.44.325-1.97 1.26-.492.9-.773 2.02-.843 3.578h5.207zm-20.89 8.874c.808 1.42 2.04 2.048 3.658 2.048 1.126 0 2.146-.456 3.025-1.563.88-1.108 1.513-2.63 1.9-4.57l.88.658c-.387 2.354-1.302 4.19-2.674 5.538-1.408 1.35-3.097 1.885-5.137 1.885-2.323 0-4.258-.812-5.77-2.646-1.548-1.87-2.322-4.188-2.322-7.026 0-2.7.775-4.915 2.358-6.715 1.583-1.764 3.553-2.483 5.946-2.483 2.286 0 4.15.546 5.523 1.93 1.372 1.35 2.076 3.347 2.076 5.666H87.658v.935c0 2.873.422 4.925 1.23 6.344zm4.08-8.87c0-1.628-.21-2.933-.633-3.798-.387-.865-.985-1.043-1.76-1.043-.808 0-1.442.304-1.97 1.24-.492.9-.774 2.044-.844 3.6h5.207zm-10.628-5.62l-.387 1.62h-2.288v7.92c0 3.046.283 5.09.635 6.127.316 1.003.95 1.71 1.83 1.986v.39c-1.338-.032-3.364.015-6.052-.02-.493-.276-.845-.765-1.02-1.353-.212-.554-.317-1.592-.317-3.08 0-.416 0-1.005.035-1.697.035-.727-.007-1.21-.007-1.488v-8.785H72.81l.176-.94c1.477-.763 2.744-1.663 3.8-2.632 1.02-1.003 1.9-2.11 2.603-3.425h.485c-.035.45-.134 1.003-.17 1.626 0 .66-.035 1.42-.035 2.355v1.396h2.675zm-.21 18.045H82.13zm-8.764.084c-.67-.034-1.337-.044-2.006-.044-.703-.034-1.372-.034-2.04-.034-.67 0-1.337 0-2.006.034-.668 0-1.337.035-2.005.07v-.38c.53-.278.88-.86 1.056-1.623.21-.726.267-2.18.267-4.29v-1.974-1.628c0-2.423-.126-4.154-.478-5.192-.35-1.038-.914-1.558-1.724-1.558-.843 0-1.51.59-2.004 1.766-.493 1.21-.69 2.872-.69 4.984v1.627c0 3.218.057 5.294.268 6.125.21.865.598 1.517 1.126 1.76v.38c-.634-.034-1.267-.07-1.9-.07-.633-.033-1.302-.033-2.006-.033-.668 0-1.372 0-2.11.034-.704 0-1.443.035-2.217.07v-.38c.67-.278 1.31-.93 1.557-1.726.282-.796.387-2.527.387-5.192v-.97-4.81c0-1.49-.104-2.423-.35-2.84-.212-.414-.784-.656-1.382-.69v-.382c1.16-.173 2.252-.346 3.342-.554 1.09-.207 2.26-.45 3.282-.692v2.493c.527-1.073 1.01-1.697 1.75-2.216.738-.484 1.618-.727 2.638-.727 1.9 0 3.307.693 4.187 2.042.88 1.385 1.21 3.53 1.21 6.438v1.94c0 3.114.14 5.12.386 6.056.246.97.83 1.596 1.465 1.804v.38zM45.16 34.88c.81 1.418 2.04 2.145 3.66 2.145 1.125 0 2.145-.554 3.025-1.662.88-1.107 1.513-2.63 1.9-4.57l.88.66c-.388 2.353-1.303 4.187-2.675 5.537-1.407 1.35-3.096 2.008-5.136 2.008-2.322 0-4.257-.935-5.77-2.77-1.548-1.87-2.322-4.188-2.322-7.026 0-2.7.774-4.915 2.357-6.715 1.582-1.765 3.553-2.63 5.945-2.63 2.287 0 4.15.692 5.523 2.077 1.373 1.35 2.076 3.165 2.076 5.484h-10.77v.988c0 2.873.497 5.054 1.306 6.473zm4.08-9.07c0-1.626-.21-2.734-.632-3.6-.387-.865-.985-1.315-1.76-1.315-.808 0-1.44.45-1.97 1.385-.492.9-.873 1.974-.943 3.53h5.306zM19.6 38.565c-2.27 0-4.45-.38-6.478-1.08 15.91.108 27.268-11.433 24.753-25.184.856 2.165 1.326 4.52 1.326 6.98 0 10.65-8.776 19.284-19.6 19.284zm-5.455-8.07V12.7h4.933c6.157.02 10.55 4.314 10.22 10.97 4.362-8.296-.456-16.773-9.218-16.735H7.067v27.17C2.75 30.568 0 25.24 0 19.28 0 8.635 8.778 0 19.6 0c6.037 0 11.435 2.685 15.03 6.908 1.022 14.472-5.093 24.186-20.485 23.585z" id="path-1" class="cls-2" fill-rule="evenodd"/></svg>