<svg xmlns="http://www.w3.org/2000/svg" width="21" height="21" viewBox="0 0 21 21"><defs><style>.cls-1 { fill: none; stroke: #fff; stroke-width: 1px; fill-rule: evenodd; }</style></defs><path id="Settings" class="cls-1" d="M17.985 11.555c0-.3.1-.6.1-1a3.055 3.055 0 0 0-.1-1.005l2.142-1.71a.468.468 0 0 0 .1-.6l-2.04-3.517a.578.578 0 0 0-.612-.1l-2.55 1.005a9.732 9.732 0 0 0-1.735-1.005L12.884 1a.406.406 0 0 0-.408-.5H8.4a.547.547 0 0 0-.51.4l-.408 2.714A7.753 7.753 0 0 0 5.747 4.62L3.3 3.613a.636.636 0 0 0-.715.2L.545 7.332a.55.55 0 0 0 .2.6L2.888 9.54c0 .3-.1.6-.1 1.005a3.054 3.054 0 0 0 .1 1l-2.143 1.71a.47.47 0 0 0-.1.6l2.04 3.517a.578.578 0 0 0 .613.1l2.55-1.005a9.776 9.776 0 0 0 1.735 1.005l.408 2.613a.465.465 0 0 0 .51.4h4.082a.547.547 0 0 0 .51-.4l.408-2.6a9.732 9.732 0 0 0 1.734-1.005l2.55 1.005a.494.494 0 0 0 .613-.2l2.04-3.518a.45.45 0 0 0-.1-.6zm-7.55 2.513a3.518 3.518 0 1 1 3.57-3.518 3.588 3.588 0 0 1-3.57 3.518z"/></svg>