<svg xmlns="http://www.w3.org/2000/svg" width="24.375" height="23.625" viewBox="0 0 24.375 23.625"><defs><style>.cls-1 { fill: #c7cdd9; fill-rule: evenodd; }</style></defs><path id="Ask" class="cls-1" d="M2.587-.003h19.2c2.65 0 2.4-.247 2.4 2.363v18.9c0 2.61.25 2.363-2.4 2.363h-19.2c-2.65 0-2.4.247-2.4-2.363V2.36c0-2.61-.25-2.363 2.4-2.363zM1.2.803h21.974V22.79H1.2V.803zm11.837 15.973v1.992h-1.76v-1.992h1.76zM8.75 8.256a4.36 4.36 0 0 1 .765-1.41 3.13 3.13 0 0 1 1.13-.878 3.978 3.978 0 0 1 1.59-.306 4.517 4.517 0 0 1 1.477.192 3.976 3.976 0 0 1 1.224.794 3.177 3.177 0 0 1 .772 1.1 3.68 3.68 0 0 1 .234 1.444 3.113 3.113 0 0 1-.233.943 3.28 3.28 0 0 1-.17.756 3.5 3.5 0 0 1-.37.63c-.18.192-.435.38-.62.56s-.446.343-.624.52a3.316 3.316 0 0 0-.318.56 2.693 2.693 0 0 0-.345.645 2.763 2.763 0 0 0-.13.872v.662h-1.746v-.88a3.328 3.328 0 0 1 .288-1.232 3.7 3.7 0 0 1 .554-.876c.215-.25 1.137-1.147 1.36-1.4a2.262 2.262 0 0 0 .786-1.893 2.1 2.1 0 0 0-.484-1.462 2.516 2.516 0 0 0-1.66-.523 1.784 1.784 0 0 0-.92.2 2.028 2.028 0 0 0-.69.61 2.372 2.372 0 0 0-.44.885 3.56 3.56 0 0 0-.14 1.016H8.535a4.03 4.03 0 0 1 .217-1.53z"/></svg>