<svg xmlns="http://www.w3.org/2000/svg" width="24.375" height="23.625" viewBox="0 0 24.375 23.625">
  <defs>
    <style>
      .cls-1 {
        fill: #c7cdd9;
        fill-rule: evenodd;
      }
    </style>
  </defs>
  <path id="Ask" class="cls-1" d="M206.4,132.185h19.2c2.651,0,2.4-.247,2.4,2.363v18.9c0,2.61.251,2.363-2.4,2.363H206.4c-2.651,0-2.4.247-2.4-2.363v-18.9C204,131.938,203.749,132.185,206.4,132.185Zm-1.388.806h21.975v21.987H205.012V132.991Zm11.838,15.973v1.992h-1.759v-1.992h1.759Zm-4.286-8.52a4.361,4.361,0,0,1,.764-1.41,3.131,3.131,0,0,1,1.13-.878,3.978,3.978,0,0,1,1.591-.306,4.517,4.517,0,0,1,1.476.192,3.976,3.976,0,0,1,1.224.794,3.177,3.177,0,0,1,.772,1.1,3.679,3.679,0,0,1,.234,1.444,3.113,3.113,0,0,1-.233.943,3.28,3.28,0,0,1-.168.756,3.5,3.5,0,0,1-.371.629c-0.179.192-.435,0.379-0.619,0.56s-0.447.343-.625,0.519a3.316,3.316,0,0,0-.318.56,2.693,2.693,0,0,0-.345.646,2.763,2.763,0,0,0-.13.872v0.662H215.2v-0.88a3.328,3.328,0,0,1,.288-1.231,3.7,3.7,0,0,1,.554-0.876c0.216-.251,1.138-1.147,1.361-1.4a2.262,2.262,0,0,0,.786-1.893,2.1,2.1,0,0,0-.484-1.461,2.516,2.516,0,0,0-1.66-.523,1.784,1.784,0,0,0-.921.2,2.028,2.028,0,0,0-.689.611,2.372,2.372,0,0,0-.441.884,3.561,3.561,0,0,0-.138,1.016h-1.509A4.029,4.029,0,0,1,212.564,140.444Z" transform="translate(-203.813 -132.188)"/>
</svg>
