<svg xmlns="http://www.w3.org/2000/svg" width="21" height="24" viewBox="0 0 21 24">
  <defs>
    <style>
      .cls-1 {
        fill: #c7cdd9;
        fill-rule: evenodd;
      }
    </style>
  </defs>
  <path id="Companies" class="cls-1" d="M215.5,207h-8a1.5,1.5,0,0,1-1.5-1.5v-21a1.5,1.5,0,0,1,1.5-1.5h8a1.5,1.5,0,0,1,1.5,1.5v21A1.5,1.5,0,0,1,215.5,207Zm-8-23a0.5,0.5,0,0,0-.5.5v21a0.5,0.5,0,0,0,.5.5h8a0.5,0.5,0,0,0,.5-0.5v-21a0.5,0.5,0,0,0-.5-0.5h-8Zm5.5,6h-3v-3h3v3Zm0,6.5h-3v-3h3v3Zm0,6.5h-3v-3h3v3Zm12.5,4h-8a1.5,1.5,0,0,1-1.5-1.5v-15a1.5,1.5,0,0,1,1.5-1.5h8a1.5,1.5,0,0,1,1.5,1.5v15A1.5,1.5,0,0,1,225.5,207Zm-8-17a0.5,0.5,0,0,0-.5.5v15a0.5,0.5,0,0,0,.5.5h8a0.5,0.5,0,0,0,.5-0.5v-15a0.5,0.5,0,0,0-.5-0.5h-8Zm5.5,6.5h-3v-3h3v3Zm0,6.5h-3v-3h3v3Zm-7.376,3.419H217.5V207h-1.876v-0.581Zm1-16.829H218V189h-1.377v0.59Z" transform="translate(-206 -183)"/>
</svg>
