<svg xmlns="http://www.w3.org/2000/svg" width="21" height="24" viewBox="0 0 21 24"><defs><style>.cls-1 { fill: #c7cdd9; fill-rule: evenodd; }</style></defs><path id="Companies" class="cls-1" d="M9.5 24h-8A1.5 1.5 0 0 1 0 22.5v-21A1.5 1.5 0 0 1 1.5 0h8A1.5 1.5 0 0 1 11 1.5v21A1.5 1.5 0 0 1 9.5 24zm-8-23a.5.5 0 0 0-.5.5v21a.5.5 0 0 0 .5.5h8a.5.5 0 0 0 .5-.5v-21a.5.5 0 0 0-.5-.5h-8zM7 7H4V4h3v3zm0 6.5H4v-3h3v3zM7 20H4v-3h3v3zm12.5 4h-8a1.5 1.5 0 0 1-1.5-1.5v-15A1.5 1.5 0 0 1 11.5 6h8A1.5 1.5 0 0 1 21 7.5v15a1.5 1.5 0 0 1-1.5 1.5zm-8-17a.5.5 0 0 0-.5.5v15a.5.5 0 0 0 .5.5h8a.5.5 0 0 0 .5-.5v-15a.5.5 0 0 0-.5-.5h-8zm5.5 6.5h-3v-3h3v3zm0 6.5h-3v-3h3v3zm-7.376 3.42H11.5V24H9.624v-.58zm1-16.83H12V6h-1.377v.59z"/></svg>