<svg xmlns="http://www.w3.org/2000/svg" width="23.875" height="23" viewBox="0 0 23.875 23">
  <defs>
    <style>
      .cls-1 {
        fill: #c7cdd9;
        fill-rule: evenodd;
      }
    </style>
  </defs>
  <path id="Feed" class="cls-1" d="M222.567,94.7a0.606,0.606,0,0,0-.581.708v8.572H218V99.628a0.693,0.693,0,0,0-.67-0.694h-4.655a0.709,0.709,0,0,0-.708.694v4.352h-3.994V95.324c0-.373,0-0.617-0.394-0.617a0.573,0.573,0,0,0-.6.617v8.994a0.681,0.681,0,0,0,.669.682h4.7a0.682,0.682,0,0,0,.67-0.682v-4.2H217v4.2a0.686,0.686,0,0,0,.7.682h4.631a0.681,0.681,0,0,0,.669-0.682V95.407C223,95.007,222.933,94.7,222.567,94.7Zm4.311-.853-5.868-5.853V83.8c0-.4-0.109-0.573-0.5-0.573a0.5,0.5,0,0,0-.533.594v2.978L215.5,82.216A0.66,0.66,0,0,0,215.034,82a0.682,0.682,0,0,0-.493.219L203.19,93.77c-0.273.277,0.164,0.549,0.454,0.8,0.253,0.3.815-.28,1.087-0.556L215,83.048l10.684,11.317a0.863,0.863,0,0,0,.542.282,0.354,0.354,0,0,0,.344-0.046C226.824,94.344,227.149,94.126,226.878,93.847Z" transform="translate(-203.094 -82)"/>
</svg>
