<svg xmlns="http://www.w3.org/2000/svg" width="24" height="24" viewBox="0 0 24 24"><defs><style>.cls-1 { fill: #fff; fill-rule: evenodd; }</style></defs><path id="Notifications" class="cls-1" d="M23.924 20.677a.7.7 0 0 1-.642.375H.738a.7.7 0 0 1-.642-.375 1.283 1.283 0 0 1-.09-.493.706.706 0 0 1 .143-.4 16.377 16.377 0 0 0 2.107-4.37A31.868 31.868 0 0 0 4 9c.222-1.694.47-3.386 1.24-4.3a7.437 7.437 0 0 1 1.337-1.24A8.252 8.252 0 0 1 9.34 2.126 2.6 2.6 0 0 1 10.28.615 2.67 2.67 0 0 1 12 0a2.7 2.7 0 0 1 1.728.608 2.576 2.576 0 0 1 .956 1.512 8.244 8.244 0 0 1 2.75 1.332 7.342 7.342 0 0 1 1.334 1.24 8 8 0 0 1 1.7 4.048 42.515 42.515 0 0 0 1.284 6.67 17.086 17.086 0 0 0 2.12 4.527.665.665 0 0 1 .13.388.85.85 0 0 1-.078.352zm-3.758-5.587a52.606 52.606 0 0 1-1.152-6.166 6.667 6.667 0 0 0-1.44-3.413 6 6 0 0 0-1.165-1.02 7.232 7.232 0 0 0-2.567-1.1.717.717 0 0 1-.563-.685V2.68A1.256 1.256 0 0 0 12 1.44a1.27 1.27 0 0 0-1.283 1.24v.026a.69.69 0 0 1-.537.685 7.318 7.318 0 0 0-2.58 1.1A6.02 6.02 0 0 0 5 8.926a57.62 57.62 0 0 1-1.15 6.18A21.267 21.267 0 0 1 2 20h20a21.842 21.842 0 0 1-1.834-4.91zm-6.657 8.285a2.016 2.016 0 0 1-1.5.63 2.075 2.075 0 0 1-1.517-.63 2.01 2.01 0 0 1-.626-1.483h4.27a2.052 2.052 0 0 1-.628 1.483z"/></svg>