<svg xmlns="http://www.w3.org/2000/svg" width="21" height="21" viewBox="0 0 21 21">
  <defs>
    <style>
      .cls-1 {
        fill: none;
        stroke: #fff;
        stroke-width: 1px;
        fill-rule: evenodd;
      }
    </style>
  </defs>
  <path id="Settings" class="cls-1" d="M937.485,34.055c0-.3.1-0.6,0.1-1a3.055,3.055,0,0,0-.1-1.005l2.142-1.709a0.468,0.468,0,0,0,.1-0.6l-2.04-3.518a0.578,0.578,0,0,0-.612-0.1l-2.551,1.005a9.732,9.732,0,0,0-1.734-1.005L932.384,23.5a0.406,0.406,0,0,0-.408-0.5H927.9a0.547,0.547,0,0,0-.51.4l-0.408,2.714a7.753,7.753,0,0,0-1.735,1.005l-2.448-1.005a0.636,0.636,0,0,0-.714.2l-2.04,3.518a0.549,0.549,0,0,0,.2.6l2.143,1.608c0,0.3-.1.6-0.1,1.005a3.054,3.054,0,0,0,.1,1l-2.143,1.709a0.471,0.471,0,0,0-.1.6l2.041,3.518a0.578,0.578,0,0,0,.612.1l2.55-1.005a9.776,9.776,0,0,0,1.735,1.005l0.408,2.613a0.465,0.465,0,0,0,.51.4h4.081a0.547,0.547,0,0,0,.51-0.4L933,39.985a9.732,9.732,0,0,0,1.734-1.005l2.551,1.005a0.494,0.494,0,0,0,.612-0.2l2.04-3.518a0.45,0.45,0,0,0-.1-0.6Zm-7.55,2.513a3.518,3.518,0,1,1,3.571-3.518A3.588,3.588,0,0,1,929.935,36.568Z" transform="translate(-919.5 -22.5)"/>
</svg>
