<svg xmlns="http://www.w3.org/2000/svg" width="73.094" height="74" viewBox="0 0 73.094 74"><defs><style>.cls-1 { fill: #65aacd; fill-rule: evenodd; }</style></defs><path class="cls-1" d="M73.005 71.86a1.7 1.7 0 0 1-1.64 2.15h-6.44l-.68-3.41h4.9l-7.75-28.92h3.52zm-1.64-33.59a1.705 1.705 0 0 1 0 3.41h-6.448l-.408-1.51a1.7 1.7 0 1 0-3.28.89l.17.62H36.53a1.708 1.708 0 0 0 1.7-1.7v-1.71h33.137zm-6.448 3.41H61.4l-.17-.62a1.7 1.7 0 1 1 3.28-.89zM60.78 70.6l.68 3.41h-3.35l-.517-3.41h3.186zm-6.628 0l.518 3.41H38.23V70.6H54.15zM38.23 38.27v1.71a1.7 1.7 0 1 1-3.4 0v-1.71h3.4zm0-36.58v36.58h-3.4V1.69a1.7 1.7 0 1 1 3.4 0zm-1.7 39.99H11.61l.22-.84a1.7 1.7 0 1 0-3.28-.88l-.46 1.72h-6.4a1.705 1.705 0 0 1 0-3.41h33.137v1.71a1.708 1.708 0 0 0 1.703 1.7zm-1.7 28.92H13.25l2.242-6.94a1.7 1.7 0 1 0-3.245-1L9.68 70.6H3.904l7.707-28.92H61.4l7.748 28.92h-4.9l-1.877-9.4a1.7 1.7 0 0 0-3.33.68l1.742 8.72h-3.186l-.476-3.1a1.703 1.703 0 1 0-3.373.47l.408 2.63H38.23V53.59a1.7 1.7 0 1 0-3.4 0V70.6zm-21.582 0h21.58v3.41H12.145zM10.63 38.76a1.694 1.694 0 0 1 1.2 2.08l-.22.84H8.094l.46-1.72a1.694 1.694 0 0 1 2.08-1.2zm.98 2.92L3.9 70.6H9.68l-1.105 3.41h-6.88a1.71 1.71 0 0 1-1.352-.67 1.73 1.73 0 0 1-.29-1.48l8.04-30.18h3.517z"/></svg>