<svg xmlns="http://www.w3.org/2000/svg" width="65.562" height="67.222" viewBox="0 0 65.562 67.222"><defs><style>.cls-1 { fill: #65aacd; fill-rule: evenodd; }</style></defs><path class="cls-1" d="M15.444 65.592h48.494V1.64h-11.27V20.96l-9.22-4.79-9.563 4.28V1.64h-18.44V65.59zm48.494 1.63H15.444a1.63 1.63 0 0 1-1.625-1.63V1.64A1.627 1.627 0 0 1 15.443.01h18.44A1.627 1.627 0 0 1 35.51 1.64v16.3l7.275-3.25a1.62 1.62 0 0 1 1.41.04l6.848 3.55V1.64A1.626 1.626 0 0 1 52.668.01h11.27a1.626 1.626 0 0 1 1.624 1.627V65.59a1.628 1.628 0 0 1-1.624 1.63zm-46.87-3.26h45.245v-60.7h-8.02v17.7a1.62 1.62 0 0 1-2.372 1.44l-8.526-4.42-8.847 3.95a1.625 1.625 0 0 1-2.287-1.48V3.266H17.07v60.7zm-8.958 1.63H1.63V1.64h6.48V65.59zm0 1.63H1.63a1.63 1.63 0 0 1-1.624-1.63V1.64A1.627 1.627 0 0 1 1.63.01h6.48A1.627 1.627 0 0 1 9.733 1.64V65.59a1.63 1.63 0 0 1-1.625 1.63zm-4.853-3.26h3.228v-60.7H3.257v60.7z"/></svg>