<svg xmlns="http://www.w3.org/2000/svg" width="68.094" height="68.06" viewBox="0 0 68.094 68.06">
  <defs>
    <style>
      .cls-1 {
        fill: #65aacd;
        fill-rule: evenodd;
      }
    </style>
  </defs>
  <path class="cls-1" d="M549.721,1195v51.04a8.513,8.513,0,0,1-8.514,8.51H490.124a8.513,8.513,0,0,1-8.514-8.51V1195a8.513,8.513,0,0,1,8.514-8.51h51.083A8.513,8.513,0,0,1,549.721,1195Zm-9.783,24.73a1.654,1.654,0,0,0-.485-1.27l-10.94-10.94a1.7,1.7,0,1,0-2.41,2.41l9.8,9.8-9.8,9.79a1.7,1.7,0,0,0,2.41,2.41l10.94-10.94A1.646,1.646,0,0,0,539.938,1219.73Zm-19.794-10.55a1.7,1.7,0,0,0-3.287-.9l-5.874,21.54a1.7,1.7,0,0,0,3.286.9Zm-14.746-.1a1.7,1.7,0,0,0-2.41-2.41l-10.94,10.94a1.889,1.889,0,0,0,0,2.53l10.94,10.94a1.7,1.7,0,0,0,2.41-2.41l-9.8-9.79Z" transform="translate(-481.625 -1186.5)"/>
</svg>
