<svg xmlns="http://www.w3.org/2000/svg" width="71.532" height="70.625" viewBox="0 0 71.532 70.625">
  <defs>
    <style>
      .cls-1 {
        fill: #65aacd;
        fill-rule: evenodd;
      }
    </style>
  </defs>
  <path class="cls-1" d="M708.931,422.5v3.4a10.221,10.221,0,0,1-10.217,10.209H674.875v-1.7a1.706,1.706,0,0,0-1.7-1.7h25.542a6.818,6.818,0,0,0,6.811-6.806v-1.7h1.7A1.708,1.708,0,0,0,708.931,422.5Zm0-26.374V422.5a1.708,1.708,0,0,0-1.7-1.7h-1.7V397.827h1.7A1.707,1.707,0,0,0,708.931,396.126Zm0-4.254v4.254a1.708,1.708,0,0,0-1.7-1.7h-1.7v-2.552a6.818,6.818,0,0,0-6.811-6.806H647.631a6.818,6.818,0,0,0-6.812,6.806v2.552h-1.7a1.707,1.707,0,0,0-1.7,1.7v-4.254a10.221,10.221,0,0,1,10.217-10.209h51.083A10.221,10.221,0,0,1,708.931,391.872Zm-1.7,2.552a1.7,1.7,0,1,1,0,3.4h-1.7v-3.4h1.7Zm0,26.374a1.7,1.7,0,1,1,0,3.4h-1.7v-3.4h1.7Zm-1.7,3.4v1.7a6.818,6.818,0,0,1-6.811,6.806H647.631a6.818,6.818,0,0,1-6.812-6.806v-1.7h64.706Zm0-26.374V420.8H640.819V397.827h64.706Zm0-5.955v2.552H640.819v-2.552a6.818,6.818,0,0,1,6.812-6.806h51.083A6.818,6.818,0,0,1,705.525,391.872Zm-19.582,57a1.7,1.7,0,1,1,0,3.4H673.172a1.707,1.707,0,0,0,1.7-1.7v-1.7h11.068Zm-11.068,0v1.7a1.7,1.7,0,0,1-3.406,0v-1.7h3.406Zm0-12.761v12.761h-3.406V436.112h3.406Zm0-1.7v1.7h-3.406v-1.7A1.7,1.7,0,0,1,674.875,434.41Zm-27.244-1.7h25.541a1.707,1.707,0,0,0-1.7,1.7v1.7H647.631A10.221,10.221,0,0,1,637.414,425.9v-3.4a1.707,1.707,0,0,0,1.7,1.7h1.7v1.7A6.818,6.818,0,0,0,647.631,432.709Zm25.541,19.568H660.4a1.7,1.7,0,0,1,0-3.4h11.068v1.7A1.708,1.708,0,0,0,673.172,452.277ZM640.819,420.8v3.4h-1.7a1.7,1.7,0,1,1,0-3.4h1.7Zm0-22.971V420.8h-1.7a1.707,1.707,0,0,0-1.7,1.7V396.126a1.706,1.706,0,0,0,1.7,1.7h1.7Zm0-3.4v3.4h-1.7a1.7,1.7,0,1,1,0-3.4h1.7Z" transform="translate(-637.406 -381.656)"/>
</svg>
