<svg xmlns="http://www.w3.org/2000/svg" width="71.5" height="70.625" viewBox="0 0 71.5 70.625">
  <defs>
    <style>
      .cls-1 {
        fill: #65aacd;
        fill-rule: evenodd;
      }
    </style>
  </defs>
  <path class="cls-1" d="M865.4,606.722a1.694,1.694,0,0,1,1.022,1.6,129.739,129.739,0,0,1-5.073,30.487c-6.231,20.44-17.126,31.249-31.528,31.249-14.42,0-25.034-10.817-30.686-31.291a128.4,128.4,0,0,1-4.213-30.5,1.705,1.705,0,0,1,.919-1.506c0.579-.3,14.479-7.33,34.831-7.33A86.328,86.328,0,0,1,865.4,606.722Zm-35.579,59.95c28.736,0,32.685-49.141,33.145-57.309a83,83,0,0,0-32.294-6.543,81.772,81.772,0,0,0-32.328,6.509C798.555,617.251,801.058,666.672,829.82,666.672Zm33.145-57.309c-0.46,8.168-4.409,57.309-33.145,57.309-28.762,0-31.265-49.421-31.477-57.343a81.772,81.772,0,0,1,32.328-6.509A83,83,0,0,1,862.965,609.363Zm-22.08,27.685V622.66a1.7,1.7,0,0,0-1.7-1.693h-3.4v-4.232a1.7,1.7,0,0,0-3.4,0v4.232h-4.256v-4.232a1.7,1.7,0,0,0-3.4,0v4.232h-3.4a1.7,1.7,0,0,0-1.7,1.693v14.388a1.7,1.7,0,0,0,1.7,1.693h6.809V653.13a1.7,1.7,0,0,0,3.405,0V638.741h7.661A1.7,1.7,0,0,0,840.885,637.048Z" transform="translate(-794.906 -599.438)"/>
</svg>
