<svg xmlns="http://www.w3.org/2000/svg" width="70.657" height="73.187" viewBox="0 0 70.657 73.187"><defs><style>.cls-1 { fill: #65aacd; fill-rule: evenodd; }</style></defs><path class="cls-1" d="M56.552 30.422a14.076 14.076 0 1 1-14.115 14.072 14.108 14.108 0 0 1 14.115-14.072zm10.716 14.072a10.716 10.716 0 1 0-10.716 10.69 10.716 10.716 0 0 0 10.716-10.69zm-5.32-1.088v2.33h-4.122v4.083h-2.332v-4.084h-4.122v-2.33h4.122v-4.143h2.336v4.143h4.122zm-14.982-31.71a26.706 26.706 0 0 1-1.46 16.324c.067-.8.11-1.584.118-2.372l-3.4-.042a12.453 12.453 0 0 0-2.83-7.735 19.884 19.884 0 0 1-6.322 1.068 18.356 18.356 0 0 1-12.517-5.032c-4.69 1.356-5.388 8.455-5.456 11.717h-3.383c0 .746.017 1.49.06 2.22-1.726-4.88-2.643-12.488-.63-17.783a11.287 11.287 0 0 1 7.25-6.507A17.2 17.2 0 0 1 29.18.003c8.55-.005 16.36 5.13 17.786 11.687zm-2.82 7.43a24.188 24.188 0 0 0-.5-6.71C42.555 7.44 36.072 3.39 29.18 3.39A13.884 13.884 0 0 0 20.276 6.4l-.314.254-.39.093a7.908 7.908 0 0 0-5.243 4.524 16.32 16.32 0 0 0-.892 5.28c1.912-4.44 5-5.838 7.46-6.177l.927-.127.6.712A15.026 15.026 0 0 0 33.07 15.55a17.027 17.027 0 0 0 6.136-1.212l.9-.347.757.585a12.433 12.433 0 0 1 3.282 4.545zm-1.922 6.48l3.4.042c-.01.788-.05 1.576-.12 2.372-.033.06-.05.1-.06.12l-3.526 7.03.315-7.86c.025-.604.017-1.167-.01-1.704zm1.42-13.2a24.188 24.188 0 0 1 .5 6.71 12.433 12.433 0 0 0-3.28-4.55l-.757-.584-.9.347a17.027 17.027 0 0 1-6.136 1.21 15.026 15.026 0 0 1-10.647-4.59l-.6-.713-.926.127c-2.465.34-5.55 1.737-7.46 6.176a16.32 16.32 0 0 1 .89-5.278 7.908 7.908 0 0 1 5.244-4.524l.392-.093.314-.254a13.884 13.884 0 0 1 8.906-3.007c6.89.004 13.374 4.054 14.462 9.023zm-3.28 39.166v2.178h-3.4v-1.504zm0-7.243v7.242l-3.4.67v-3.457a23.672 23.672 0 0 0 3.4-4.452zm0-.484v.483a23.672 23.672 0 0 1-3.4 4.455v-4.94h3.4zm-23.718.45v-.45h3.4v4.592a21.216 21.216 0 0 1-3.4-4.14zm3.4 9.37h-3.4v-2.06l3.4.686v1.38zm-4.368 4.964l1.416-3.478 11.192 2.262 11.66-2.305 1.826 3.244 10.537 5.193a48.328 48.328 0 0 1-47.4.05zM28.56 73.168a51.532 51.532 0 0 1-26.266-7.162l-.17-.11a4.99 4.99 0 0 1-1.82-2.423L0 62.133l13.035-6.014 1.98-4.847 1.632.33v2.068h3.4v-1.38l8.25 1.67 8.67-1.712v1.508h3.4v-2.18l1.35-.27 2.516 4.472 12.755 6.287-.06 1.11a3.825 3.825 0 0 1-2 2.77 51.543 51.543 0 0 1-26.368 7.227zm-.27-15.758l-11.196-2.258-1.42 3.482L4.91 63.598a48.328 48.328 0 0 0 47.4-.05L41.77 58.353l-1.826-3.245zm.152-4.99a14.2 14.2 0 0 1-8.4-3.982v-4.592h-3.4v.45a34.01 34.01 0 0 1-4.87-16.462c.017.034.026.076.043.11l4.053 11.293-.756-11.97c0-.026-.042-.662-.017-1.653h.017c0 12.632 5.864 22.705 13.64 23.434a6.91 6.91 0 0 0 5.234-2.127c4.59-4.108 8.132-13.274 8.234-21.323.026.542.034 1.11.01 1.7l-.316 7.862 3.527-7.033c.01-.017.027-.06.06-.12a38.976 38.976 0 0 1-5.14 16.32v-.484h-3.4v4.94c-.23.228-.46.448-.7.66a10.63 10.63 0 0 1-7.045 3.016c-.247.006-.51-.01-.774-.037zm-11.795-.822v-7.3a21.216 21.216 0 0 0 3.4 4.143v3.847zm-1.53-24.332l.756 11.97-4.053-11.292c-.017-.034-.026-.076-.043-.11-.042-.73-.06-1.474-.06-2.22H15.1c-.026.992.016 1.63.016 1.656z"/></svg>