<svg xmlns="http://www.w3.org/2000/svg" width="71.532" height="71.437" viewBox="0 0 71.532 71.437">
  <defs>
    <style>
      .cls-1 {
        fill: #65aacd;
        fill-rule: evenodd;
      }
    </style>
  </defs>
  <path class="cls-1" d="M673.17,599.454a35.729,35.729,0,1,1-35.755,35.729A35.783,35.783,0,0,1,673.17,599.454Zm32.337,35.729A32.337,32.337,0,1,0,673.17,667.5,32.357,32.357,0,0,0,705.507,635.183ZM673.17,602.869a32.314,32.314,0,1,1-32.337,32.314A32.357,32.357,0,0,1,673.17,602.869Zm28.167,32.314a1.71,1.71,0,0,0-3.419,0A24.763,24.763,0,0,1,673.17,659.9a1.708,1.708,0,1,0,0,3.416A28.185,28.185,0,0,0,701.337,635.183Zm-6.811,0a1.71,1.71,0,0,0-3.419,0A17.948,17.948,0,0,1,673.17,653.1a1.708,1.708,0,1,0,0,3.416A21.369,21.369,0,0,0,694.526,635.183Zm-15.331.128a6.153,6.153,0,1,0-6.153,6.148A6.147,6.147,0,0,0,679.2,635.311Zm-4.316-26.566a1.707,1.707,0,0,0-1.709-1.708,28.185,28.185,0,0,0-28.158,28.146,1.709,1.709,0,0,0,3.418,0,24.764,24.764,0,0,1,24.74-24.731A1.7,1.7,0,0,0,674.879,608.745Zm0,6.8a1.707,1.707,0,0,0-1.709-1.707,21.364,21.364,0,0,0-21.347,21.34,1.709,1.709,0,0,0,3.418,0,17.949,17.949,0,0,1,17.929-17.925A1.7,1.7,0,0,0,674.879,615.55Z" transform="translate(-637.406 -599.469)"/>
</svg>
