<svg xmlns="http://www.w3.org/2000/svg" width="71.938" height="71.875" viewBox="0 0 71.938 71.875">
  <defs>
    <style>
      .cls-1 {
        fill: #65aacd;
        fill-rule: evenodd;
      }
    </style>
  </defs>
  <path class="cls-1" d="M848.405,385.979A35.914,35.914,0,0,1,863.16,402.5a1.711,1.711,0,0,1-.35,1.894,1.594,1.594,0,0,1-.429.307l-1.575.815a32.481,32.481,0,0,0-7.41-11.435,32.147,32.147,0,0,0-8.159-5.934c-0.127-.066-0.235-0.126-0.35-0.181a31.965,31.965,0,0,0-3.156-1.369l0.989-1.676a1.7,1.7,0,0,1,2.07-.73c0.1,0.036.586,0.223,1.352,0.591C846.745,385.069,847.512,385.461,848.405,385.979Zm-2.263-1.2c-0.766-.368-1.255-0.555-1.352-0.591a1.7,1.7,0,0,0-2.07.73l-0.989,1.676a32.791,32.791,0,0,0-22.793.031l-1.008-1.707a1.691,1.691,0,0,0-2-.754A36.168,36.168,0,0,1,846.142,384.779Zm-1.255,3.184-8.69,14.7a14.024,14.024,0,0,1,6.035,4.427c-0.278-.338-0.574-0.658-0.887-0.971a15.39,15.39,0,0,0-8.588-4.348l8.974-15.18A31.965,31.965,0,0,1,844.887,387.963Zm-3.156-1.369-8.974,15.18a15.226,15.226,0,0,0-4.858.018l-8.961-15.167A32.791,32.791,0,0,1,841.731,386.594Zm2.534,23.592,15.087-7.767a32.843,32.843,0,0,0-14.115-14.275,32.147,32.147,0,0,1,8.159,5.934,32.481,32.481,0,0,1,7.41,11.435l-15.364,7.9A15.04,15.04,0,0,0,844.265,410.186Zm-28.332-26.022a1.691,1.691,0,0,1,2,.754l1.008,1.707a30.292,30.292,0,0,0-3.15,1.375l-0.018-.031a33.009,33.009,0,0,0-8.454,6.121,31.8,31.8,0,0,0-6.017,8.329l0.006,0.006a32,32,0,0,0-1.37,3.13l-1.665-.857a1.7,1.7,0,0,1-.809-2.11c0.1-.217.187-0.428,0.284-0.646A35.972,35.972,0,0,1,815.933,384.164Zm44.933,44.313L845.7,419.528a15.569,15.569,0,0,0-.253-6.115l15.364-7.9A32.7,32.7,0,0,1,860.866,428.477ZM841.96,413.588a12.025,12.025,0,0,0-2.124-4.041,0.748,0.748,0,0,1-.073-0.1,10.772,10.772,0,0,0-5.944-3.963,1.987,1.987,0,0,0-.2-0.048c-0.169-.048-0.338-0.1-0.507-0.133a1.641,1.641,0,0,1-1.056-.922,1.684,1.684,0,0,1,.091-1.562l0.615-1.049a15.39,15.39,0,0,1,8.588,4.348c0.313,0.313.609,0.633,0.887,0.971a16.521,16.521,0,0,1,1.979,3.123l0.054-.03a15.04,15.04,0,0,1,1.177,3.227l-1.328.687a1.7,1.7,0,0,1-1.46.048A1.652,1.652,0,0,1,841.96,413.588Zm3.482-.175a15.569,15.569,0,0,1,.253,6.115l-1.146-.676a1.689,1.689,0,0,0-1.563-.09,1.653,1.653,0,0,0-.736.639,12.24,12.24,0,0,0-.29-5.813,1.652,1.652,0,0,0,.694.56,1.7,1.7,0,0,0,1.46-.048Zm-30.149.048-15.358-7.906a32,32,0,0,1,1.37-3.13l15.141,7.785a16.4,16.4,0,0,1,3.078-4.342,13.837,13.837,0,0,1,4.93-3.2L815.788,388a30.292,30.292,0,0,1,3.15-1.375l8.961,15.167A15.462,15.462,0,0,0,815.293,413.461ZM841.5,427.832a16.425,16.425,0,0,1-4.345,3.076l0.049,0.1a14.425,14.425,0,0,1-3.241,1.164l-0.7-1.351a1.7,1.7,0,0,1-.048-1.459,1.647,1.647,0,0,1,.5-0.646,12.055,12.055,0,0,0,8.533-9.311,1.653,1.653,0,0,1,.736-0.639,1.689,1.689,0,0,1,1.563.09l1.146,0.676a15.29,15.29,0,0,1-.941,3.4l-0.048-.024A13.816,13.816,0,0,1,841.5,427.832ZM816.536,414.1l-1.243-.639A15.462,15.462,0,0,1,827.9,401.792l0.61,1.031a1.681,1.681,0,0,1,.09,1.562,1.656,1.656,0,0,1-.343.512,1.725,1.725,0,0,1-.875.465,10.5,10.5,0,0,0-5.444,2.919,12.9,12.9,0,0,0-2.981,4.776A1.706,1.706,0,0,1,816.536,414.1Zm-1.243-.639,1.243,0.639a1.706,1.706,0,0,0,2.42-1.043,12.9,12.9,0,0,1,2.981-4.776,10.5,10.5,0,0,1,5.444-2.919,1.725,1.725,0,0,0,.875-0.465,1.656,1.656,0,0,0,.343-0.512,1.681,1.681,0,0,0-.09-1.562l-0.61-1.031a15.226,15.226,0,0,1,4.858-.018l-0.615,1.049a1.684,1.684,0,0,0-.091,1.562,1.641,1.641,0,0,0,1.056.922,12.084,12.084,0,0,0-14.531,14.426,1.714,1.714,0,0,0-2.468-.887l-1.056.621A15.391,15.391,0,0,1,815.293,413.461Zm-15.43,14.974a32.7,32.7,0,0,1,.072-22.88l15.358,7.906a15.391,15.391,0,0,0-.241,6.006Zm42.006,19.087-7.9-15.354A14.425,14.425,0,0,0,837.205,431l7.748,15.04a31.812,31.812,0,0,0,8.334-6.012,32.7,32.7,0,0,0,6.125-8.449l-14.658-8.654a15.29,15.29,0,0,0,.941-3.4l15.171,8.949A32.5,32.5,0,0,1,841.869,447.522Zm-15-18.858a12.224,12.224,0,0,0,6.843.048,1.647,1.647,0,0,0-.5.646,1.7,1.7,0,0,0,.048,1.459l0.7,1.351a15.567,15.567,0,0,1-7.265-.024l0.688-1.327a1.7,1.7,0,0,0,.048-1.459A1.662,1.662,0,0,0,826.874,428.664Zm-3.374,2.25a16.564,16.564,0,0,1-3.126-1.979c-0.338-.277-0.657-0.572-0.971-0.886a15.379,15.379,0,0,1-4.351-8.582l1.056-.621a1.714,1.714,0,0,1,2.468.887,4.722,4.722,0,0,0,.145.591c0.012,0.072.03,0.138,0.048,0.2a10.654,10.654,0,0,0,3.5,5.536c0.067,0.066.133,0.12,0.2,0.175a12.044,12.044,0,0,0,4.406,2.424,1.662,1.662,0,0,1,.561.694,1.7,1.7,0,0,1-.048,1.459l-0.688,1.327a15.033,15.033,0,0,1-3.229-1.176Zm18.369,16.608a32.5,32.5,0,0,0,19-19.045l1.6,0.947a1.7,1.7,0,0,1,.736,2.063,34.068,34.068,0,0,1-7.5,10.957,35.3,35.3,0,0,1-10.826,7.406,1.712,1.712,0,0,1-2.2-.778Zm-23.076-.024,7.906-15.354a15.567,15.567,0,0,0,7.265.024l7.9,15.354A32.768,32.768,0,0,1,818.793,447.5Zm-20.608-18.074a1.709,1.709,0,0,0-.73,2.068c0.036,0.1.223,0.585,0.591,1.351a36.072,36.072,0,0,1-.585-30.255,1.7,1.7,0,0,0,.809,2.11l1.665,0.857a32.7,32.7,0,0,0-.072,22.88Zm17.76-6.519-14.706,8.678A33.006,33.006,0,0,0,815.7,446.044l7.772-15.076a15.033,15.033,0,0,0,3.229,1.176L818.793,447.5a32.559,32.559,0,0,1-18.93-19.063l15.189-8.968a15.379,15.379,0,0,0,4.351,8.582c0.314,0.314.633,0.609,0.971,0.886A14.017,14.017,0,0,1,815.945,422.905Zm-16.082,5.53a32.559,32.559,0,0,0,18.93,19.063l-0.814,1.574a1.556,1.556,0,0,1-.308.428,1.713,1.713,0,0,1-1.9.35,35.915,35.915,0,0,1-16.529-14.745c-0.519-.893-0.911-1.659-1.2-2.262-0.368-.766-0.555-1.254-0.591-1.351a1.709,1.709,0,0,1,.73-2.068ZM855.809,442.5a36.023,36.023,0,0,1-50.871,0,35.624,35.624,0,0,1-5.691-7.4,35.915,35.915,0,0,0,16.529,14.745,1.713,1.713,0,0,0,1.9-.35,1.556,1.556,0,0,0,.308-0.428l0.814-1.574a32.768,32.768,0,0,0,23.076.024l0.8,1.55a1.712,1.712,0,0,0,2.2.778,35.3,35.3,0,0,0,10.826-7.406,34.068,34.068,0,0,0,7.5-10.957,1.7,1.7,0,0,0-.736-2.063l-1.6-.947a32.7,32.7,0,0,0-.06-22.964l1.575-.815a1.594,1.594,0,0,0,.429-0.307,1.711,1.711,0,0,0,.35-1.894,35.914,35.914,0,0,0-14.755-16.518A35.942,35.942,0,0,1,855.809,442.5Z" transform="translate(-794.406 -381.156)"/>
</svg>
