<svg xmlns="http://www.w3.org/2000/svg" width="68.094" height="68.062" viewBox="0 0 68.094 68.062"><defs><style>.cls-1 { fill: #65aacd; fill-rule: evenodd; }</style></defs><path class="cls-1" d="M68.096 8.497v51.046a8.513 8.513 0 0 1-8.514 8.507H8.5a8.513 8.513 0 0 1-8.515-8.507V8.497A8.514 8.514 0 0 1 8.5-.01H59.58a8.514 8.514 0 0 1 8.514 8.507zm-7.663 11.91a2.55 2.55 0 0 0-2.554-2.553H42.553a2.553 2.553 0 1 0 0 5.1h15.32a2.55 2.55 0 0 0 2.56-2.548zm-3 26.612a2.576 2.576 0 1 0-3.645-3.643L42.84 54.31a2.575 2.575 0 0 0 0 3.64 2.58 2.58 0 0 0 3.652 0zM28.08 20.405a2.55 2.55 0 0 0-2.554-2.552h-5.108V12.75a2.554 2.554 0 0 0-5.108 0v5.104H10.2a2.553 2.553 0 1 0 0 5.1h5.11v5.1a2.554 2.554 0 0 0 5.108 0v-5.1h5.108a2.55 2.55 0 0 0 2.555-2.548zM25.246 47.02a2.58 2.58 0 0 0-3.652-3.643L17.95 47.02l-3.645-3.643a2.58 2.58 0 0 0-3.652 3.642l3.652 3.648-3.652 3.642a2.575 2.575 0 0 0 0 3.64 2.58 2.58 0 0 0 3.652 0l3.644-3.64 3.643 3.64a2.578 2.578 0 0 0 3.652-3.64L21.6 50.668z"/></svg>