<svg xmlns="http://www.w3.org/2000/svg" width="70.657" height="73.187" viewBox="0 0 70.657 73.187">
  <defs>
    <style>
      .cls-1 {
        fill: #65aacd;
        fill-rule: evenodd;
      }
    </style>
  </defs>
  <path class="cls-1" d="M536.458,629.016a14.076,14.076,0,1,1-14.115,14.072A14.108,14.108,0,0,1,536.458,629.016Zm10.716,14.072a10.716,10.716,0,1,0-10.716,10.691A10.716,10.716,0,0,0,547.174,643.088ZM541.854,642v2.33h-4.122v4.083H535.4v-4.083h-4.122V642H535.4v-4.143h2.336V642h4.122Zm-14.982-31.711a26.706,26.706,0,0,1-1.461,16.325c0.068-.8.11-1.584,0.119-2.372l-3.4-.042a12.453,12.453,0,0,0-2.829-7.735,19.884,19.884,0,0,1-6.323,1.067,18.356,18.356,0,0,1-12.517-5.032c-4.691,1.356-5.388,8.455-5.456,11.717h-3.382c0,0.746.017,1.491,0.059,2.22-1.725-4.88-2.642-12.488-.628-17.783a11.287,11.287,0,0,1,7.248-6.507,17.2,17.2,0,0,1,10.784-3.55C517.635,598.592,525.445,603.726,526.872,610.284Zm-2.821,7.43a24.188,24.188,0,0,0-.5-6.71c-1.088-4.973-7.572-9.023-14.464-9.023a13.884,13.884,0,0,0-8.906,3.008l-0.314.254-0.391.093a7.908,7.908,0,0,0-5.243,4.524,16.319,16.319,0,0,0-.892,5.278c1.912-4.439,5-5.837,7.461-6.176l0.926-.127,0.6,0.712a15.026,15.026,0,0,0,10.648,4.592,17.027,17.027,0,0,0,6.136-1.212l0.9-.347,0.757,0.584A12.433,12.433,0,0,1,524.051,617.714ZM522.13,624.2l3.4,0.042c-0.009.788-.051,1.576-0.119,2.372-0.034.06-.051,0.1-0.06,0.119l-3.527,7.032,0.315-7.862C522.164,625.3,522.156,624.737,522.13,624.2ZM523.55,611a24.188,24.188,0,0,1,.5,6.71,12.433,12.433,0,0,0-3.28-4.55l-0.757-.584-0.9.347a17.027,17.027,0,0,1-6.136,1.212,15.026,15.026,0,0,1-10.648-4.592l-0.6-.712-0.926.127c-2.465.339-5.549,1.737-7.461,6.176a16.319,16.319,0,0,1,.892-5.278,7.908,7.908,0,0,1,5.243-4.524l0.391-.093,0.314-.254a13.884,13.884,0,0,1,8.906-3.008C515.978,601.981,522.462,606.031,523.55,611Zm-3.281,39.166v2.178h-3.4V650.84Zm0-7.243v7.243l-3.4.67v-3.457A23.672,23.672,0,0,0,520.269,642.927Zm0-.483v0.483a23.672,23.672,0,0,1-3.4,4.456v-4.939h3.4Zm-23.717.449v-0.449h3.4v4.592A21.216,21.216,0,0,1,496.552,642.893Zm3.4,9.37h-3.4V650.2l3.4,0.686v1.381Zm-4.368,4.965L497,653.746l11.192,2.262,11.659-2.305,1.827,3.245,10.537,5.193a48.328,48.328,0,0,1-47.4.051Zm12.883,14.538A51.532,51.532,0,0,1,482.2,664.6l-0.17-.11a4.989,4.989,0,0,1-1.819-2.423l-0.306-1.339,13.036-6.015,1.98-4.846,1.632,0.331v2.067h3.4v-1.381l8.251,1.669,8.668-1.711v1.508h3.4V650.17l1.352-.271,2.515,4.473,12.755,6.287-0.059,1.11a3.825,3.825,0,0,1-2,2.77A51.543,51.543,0,0,1,508.466,671.766Zm-0.272-15.758L497,653.746l-1.419,3.482-10.767,4.964a48.328,48.328,0,0,0,47.4-.051l-10.537-5.193-1.827-3.245Zm0.153-4.991a14.2,14.2,0,0,1-8.4-3.981v-4.592h-3.4v0.449a34.011,34.011,0,0,1-4.87-16.461c0.017,0.034.026,0.076,0.043,0.11l4.053,11.293-0.756-11.971c0-.025-0.042-0.661-0.017-1.652h0.017c0,12.632,5.864,22.705,13.639,23.434a6.909,6.909,0,0,0,5.235-2.127c4.589-4.109,8.132-13.275,8.234-21.324,0.026,0.542.034,1.11,0.009,1.7l-0.315,7.862,3.527-7.032c0.009-.017.026-0.059,0.06-0.119a38.976,38.976,0,0,1-5.142,16.318v-0.483h-3.4v4.939c-0.229.229-.459,0.449-0.7,0.661a10.63,10.63,0,0,1-7.044,3.016C508.874,651.06,508.61,651.043,508.347,651.017Zm-11.795-.821v-7.3a21.216,21.216,0,0,0,3.4,4.143v3.846Zm-1.53-24.332,0.756,11.971-4.053-11.293c-0.017-.034-0.026-0.076-0.043-0.11-0.042-.729-0.059-1.474-0.059-2.22h3.382C494.98,625.2,495.022,625.839,495.022,625.864Z" transform="translate(-479.906 -598.594)"/>
</svg>
