<svg xmlns="http://www.w3.org/2000/svg" width="67.781" height="67.531" viewBox="0 0 67.781 67.531"><defs><style>.cls-1 { fill: #65aacd; fill-rule: evenodd; }</style></defs><path class="cls-1" d="M17.343 60.3a7.207 7.207 0 1 1-7.206-7.222 7.214 7.214 0 0 1 7.206 7.222zm14.414-14.443a7.207 7.207 0 1 1-7.207-7.222 7.214 7.214 0 0 1 7.207 7.222zM67.79 60.3a7.207 7.207 0 1 1-7.207-7.222A7.214 7.214 0 0 1 67.79 60.3zm-4.5-56.47l3.6 3.41-5.2 9.53-3.2.5-27.064 26.393-.66.788-4.606-4.11 27.226-27.284.5-3.21zM25.55 52.274l-9.007 9.53-7.408-7.524 9.81-9.83zM11.44.117c15.314-1.5 19.618 10.632 18.817 20.26l5 5.217-10.71 9.83-3.8-4.213c-13.612.4-21.92-7.22-20.62-19.96l9.01 9.23 9.108-2.007 2-8.627zm32.83 35.307L35.76 44.45l19.5 20.7 5.328-1.736 4.2-6.018.516-2.525z"/></svg>