<svg xmlns="http://www.w3.org/2000/svg" width="57.031" height="70.62" viewBox="0 0 57.031 70.62"><defs><style>.cls-1 { fill: #65aacd; fill-rule: evenodd; }</style></defs><path class="cls-1" d="M41.806 55.66l10.548 5.24a48.053 48.053 0 0 1-47.45.05l10.778-5 1.42-3.52 11.2 2.28 11.672-2.31zm15.226 3.75l-.06 1.12a3.83 3.83 0 0 1-2 2.79 51.43 51.43 0 0 1-52.69.06l-.17-.11a5.05 5.05 0 0 1-1.82-2.44l-.305-1.36 13.05-6.06 1.98-4.89 1.634.33v2.08h3.4v-1.39l8.26 1.69 8.677-1.73v1.52h3.4v-2.2l1.352-.27 2.517 4.51zm-4.678 1.49l-10.548-5.24-1.83-3.26-11.67 2.31-11.2-2.28-1.42 3.52-10.778 5a48.053 48.053 0 0 0 47.442-.05zM45.99 8.56v14.1l-2.976-3.84c.008.83 0 1.64-.026 2.42-13.32-5.82-23.155-2.83-27.884-.48 0-.52.008-1.03.017-1.55l-3.138 3.44a.027.027 0 0 0-.017.01V8.56A8.53 8.53 0 0 1 20.47.01h17.014a8.53 8.53 0 0 1 8.507 8.55zm-2.976 10.26l2.977 3.84c-1.02-.53-2.024-1-3-1.42.024-.78.032-1.59.024-2.42zm-.026 2.42c.978.42 1.982.89 3 1.42a38.727 38.727 0 0 1-5.6 18.96v-.59h-3.4v4.98c-.23.23-.46.45-.7.67a10.546 10.546 0 0 1-7.05 3.04c-.257 0-.52-.02-.784-.04a13.986 13.986 0 0 1-8.4-4.07v-4.58h-3.4v.27c-2.943-4.82-4.687-11.36-4.687-18.64a.027.027 0 0 1 .017-.01 18.25 18.25 0 0 1 3.122-1.89c.025 15.62 6.133 24.81 13.67 25.52a6.922 6.922 0 0 0 5.24-2.14c4.328-3.92 8.615-10.04 8.972-22.9zm-2.594 27.58v2.2h-3.4V49.5zm0-7.2v7.2l-3.4.68v-3.49a25.185 25.185 0 0 0 3.4-4.39zm0-.59v.59a25.185 25.185 0 0 1-3.4 4.39v-4.98h3.4zm-20.34 8.51v1.39h-3.4v-2.08zm0-3.93v3.93l-3.4-.69V41.3a21.618 21.618 0 0 0 3.4 4.31zm0-4.58v4.58a21.618 21.618 0 0 1-3.4-4.31v-.27h3.4zm-4.933-21.82c-.008.52-.016 1.03-.016 1.55a18.25 18.25 0 0 0-3.122 1.89z"/></svg>