<svg xmlns="http://www.w3.org/2000/svg" width="74.062" height="74" viewBox="0 0 74.062 74"><defs><style>.cls-1 { fill: #65aacd; fill-rule: evenodd; }</style></defs><path class="cls-1" d="M35.312 12.765v3.547a8.305 8.305 0 0 1-5.957-4.93 27.012 27.012 0 0 1 3.432-.758 4.845 4.845 0 0 0 2.525 2.14zm3.424 3.543v-3.543a4.8 4.8 0 0 0 2.508-2.145 25.6 25.6 0 0 1 3.44.775 8.307 8.307 0 0 1-5.948 4.917zm25.018 25.256a26.1 26.1 0 0 1-.77 3.372 8.29 8.29 0 0 1-5.307-5.977h3.57a4.806 4.806 0 0 0 2.507 2.604zm-6.12-6.012a8.288 8.288 0 0 1 5.3-6.14 24.364 24.364 0 0 1 .795 3.365 4.765 4.765 0 0 0-2.543 2.775h-3.552zM12.64 38.96h3.64a8.293 8.293 0 0 1-5.348 5.687 24.656 24.656 0 0 1-.728-3.372 4.828 4.828 0 0 0 2.435-2.316zm3.825-3.408h-3.51a4.76 4.76 0 0 0-2.627-3.09 25.58 25.58 0 0 1 .84-3.347 8.278 8.278 0 0 1 5.297 6.437zm18.847-19.24l.026 19.244H16.465a8.278 8.278 0 0 0-5.3-6.437 27.132 27.132 0 0 1 18.188-17.74 8.305 8.305 0 0 0 5.96 4.932zm3.475 41.393a8.29 8.29 0 0 1 6.06 5.356 26.016 26.016 0 0 1-3.364.784 4.82 4.82 0 0 0-2.7-2.58v-3.56zm-.025-18.742h18.92a8.29 8.29 0 0 0 5.306 5.977A27.134 27.134 0 0 1 44.85 63.06a8.29 8.29 0 0 0-6.06-5.355zm-3.424 0l.026 18.725a8.3 8.3 0 0 0-6.18 5.39A27.15 27.15 0 0 1 10.936 44.65a8.293 8.293 0 0 0 5.345-5.69h19.054zm3.4-22.65a8.307 8.307 0 0 0 5.95-4.914A27.115 27.115 0 0 1 62.932 29.41a8.288 8.288 0 0 0-5.3 6.14h-18.87zm-3.372 41.375v3.534a4.817 4.817 0 0 0-2.808 2.63 27.557 27.557 0 0 1-3.372-.774 8.3 8.3 0 0 1 6.178-5.394zm31.146-28.73a8.245 8.245 0 0 1 .043 16.425 30.2 30.2 0 0 0 .77-3.636 4.822 4.822 0 0 0-.025-9.162 30.15 30.15 0 0 0-.79-3.632zm0 0a30.15 30.15 0 0 1 .788 3.627 4.54 4.54 0 0 0-1.532-.256 4.786 4.786 0 0 0-2.038.45 24.364 24.364 0 0 0-.795-3.363 8.464 8.464 0 0 1 2.833-.494 7.408 7.408 0 0 1 .742.03zm.813 12.79a30.2 30.2 0 0 1-.77 3.635 7.863 7.863 0 0 1-.787.034 8.358 8.358 0 0 1-2.782-.477 26.1 26.1 0 0 0 .77-3.372 4.664 4.664 0 0 0 2.012.443 4.717 4.717 0 0 0 1.555-.267zm-.813-12.79a7.408 7.408 0 0 0-.744-.035 8.464 8.464 0 0 0-2.833.494A27.115 27.115 0 0 0 44.68 11.395a8.222 8.222 0 0 0 .625-3.15c0-.12 0-.24-.008-.36A30.73 30.73 0 0 1 66.51 28.954zm-.744 16.46a7.863 7.863 0 0 0 .787-.035A30.735 30.735 0 0 1 45.27 66.63c.024-.282.04-.572.04-.86a8.132 8.132 0 0 0-.46-2.71 27.134 27.134 0 0 0 18.13-18.124 8.358 8.358 0 0 0 2.786.476zM45.3 7.885c.01.12.01.24.01.358a8.222 8.222 0 0 1-.625 3.15 25.6 25.6 0 0 0-3.44-.774 4.683 4.683 0 0 0 .64-2.376 4.08 4.08 0 0 0-.145-1.124 30.806 30.806 0 0 1 3.56.766zm.01 57.88c0 .288-.018.578-.043.86a31 31 0 0 1-3.68.782 4.55 4.55 0 0 0 .3-1.643 4.814 4.814 0 0 0-.4-1.925 26.016 26.016 0 0 0 3.363-.783 8.132 8.132 0 0 1 .46 2.708zM37.023-.01A8.278 8.278 0 0 1 45.3 7.886a30.806 30.806 0 0 0-3.56-.766 4.856 4.856 0 0 0-9.44-.01 31.2 31.2 0 0 0-3.56.768 8.283 8.283 0 0 1 8.284-7.886zm8.243 66.633a8.3 8.3 0 0 1-16.494.008 30.958 30.958 0 0 0 3.68.784 4.864 4.864 0 0 0 9.133-.01 31 31 0 0 0 3.68-.782zM32.3 7.112a4.182 4.182 0 0 0-.146 1.133 4.767 4.767 0 0 0 .633 2.376 27.012 27.012 0 0 0-3.432.758 8.128 8.128 0 0 1-.625-3.133c0-.12 0-.247.01-.366a31.2 31.2 0 0 1 3.56-.768zm.256 56.738a4.77 4.77 0 0 0-.4 1.916 4.6 4.6 0 0 0 .3 1.652 30.958 30.958 0 0 1-3.68-.784c-.027-.29-.044-.58-.044-.868a8.224 8.224 0 0 1 .454-2.69 27.557 27.557 0 0 0 3.37.773zM28.73 8.245a8.128 8.128 0 0 0 .625 3.133 27.132 27.132 0 0 0-18.188 17.734 8.168 8.168 0 0 0-2.893-.52c-.23 0-.462.01-.685.026A30.682 30.682 0 0 1 28.74 7.875c-.01.122-.01.25-.01.37zm.454 54.83a8.224 8.224 0 0 0-.454 2.69c0 .29.017.58.043.87a30.713 30.713 0 0 1-21.423-21.6 8.175 8.175 0 0 0 .924.05 8.345 8.345 0 0 0 2.662-.434A27.15 27.15 0 0 0 29.18 63.075zM11.167 29.112a25.58 25.58 0 0 0-.84 3.346 4.745 4.745 0 0 0-2.053-.46 4.542 4.542 0 0 0-1.523.256 29.87 29.87 0 0 1 .84-3.636c.222-.017.453-.026.684-.026a8.168 8.168 0 0 1 2.893.52zm-.96 12.16a24.656 24.656 0 0 0 .73 3.372 8.345 8.345 0 0 1-2.663.434 8.175 8.175 0 0 1-.924-.05 30.226 30.226 0 0 1-.728-3.654 4.62 4.62 0 0 0 1.652.3 4.883 4.883 0 0 0 1.934-.4zM7.59 28.618a29.87 29.87 0 0 0-.84 3.636 4.814 4.814 0 0 0-.128 9.12 30.226 30.226 0 0 0 .728 3.653 8.24 8.24 0 0 1 .24-16.406z"/></svg>