<svg xmlns="http://www.w3.org/2000/svg" width="68.125" height="64.65" viewBox="0 0 68.125 64.65"><defs><style>.cls-1 { fill: #65aacd; fill-rule: evenodd; }</style></defs><path class="cls-1" d="M68.117 50.84v7.11h-.034c-.3-1.26-2.555-2.44-6.216-3.41 3.934-1.05 6.25-2.33 6.25-3.7zm0-14.81v7.12h-.034c-.29-1.28-2.546-2.45-6.216-3.42 3.934-1.04 6.25-2.32 6.25-3.7zm0-14.67v7.26c0-1.44-2.546-2.77-6.837-3.84 3.865-.97 6.317-2.14 6.76-3.42h.077zm0-14.95v7.12h-.137c-.57-1.23-2.98-2.35-6.7-3.28 4.295-1.06 6.837-2.4 6.837-3.84zm-.01 29.48a.682.682 0 0 1 .01.14c0 1.38-2.316 2.66-6.25 3.7a75.443 75.443 0 0 0-10.82-1.85 73.212 73.212 0 0 0 11.348-1.99h5.713zm.01-7.27l-6.113.04a76.894 76.894 0 0 0-12.362-2.03 80.146 80.146 0 0 0 11.638-1.85c4.295 1.07 6.837 2.4 6.837 3.84zm-6.113.04l6.113-.04a2.47 2.47 0 0 1-1.448 1.86 17.55 17.55 0 0 0-4.666-1.82zm6.08 14.49a1.073 1.073 0 0 1 .033.28 2.44 2.44 0 0 1-1.456 1.85 20.572 20.572 0 0 0-5.73-2.09zm0 14.8a1.2 1.2 0 0 1 .033.29 2.454 2.454 0 0 1-1.448 1.86 20.688 20.688 0 0 0-5.773-2.1zm.024-22.06h-5.713a17.655 17.655 0 0 0 4.266-1.71 2.592 2.592 0 0 1 1.448 1.71zm-.025 7.26l-7.152.04a81.262 81.262 0 0 0-9.884-1.61 75.443 75.443 0 0 0 10.82-1.85c3.67.97 5.927 2.14 6.217 3.42zm0 14.8l-7.186.05a79.82 79.82 0 0 0-9.893-1.61 74.583 74.583 0 0 0 10.863-1.85c3.66.97 5.918 2.15 6.216 3.41zm.034-37.02a1.234 1.234 0 0 1-.077.43h-6.76a18.357 18.357 0 0 0 5.6-2.14 2.248 2.248 0 0 1 1.237 1.71zm-.077 29.48a1.234 1.234 0 0 1 .077.43c0 1.37-2.316 2.65-6.25 3.7a74.067 74.067 0 0 0-10.82-1.85 66.693 66.693 0 0 0 12.293-2.28h4.7zm-6.76-29.05h6.76c-.443 1.28-2.895 2.45-6.76 3.42a76.436 76.436 0 0 0-10.276-1.71 76.436 76.436 0 0 0 10.276-1.71zm6.76 29.05h-4.7a14.508 14.508 0 0 0 3.33-1.42 3.033 3.033 0 0 1 1.37 1.42zm-.06-36.88a1.24 1.24 0 0 1 .137.57 2.248 2.248 0 0 1-1.235 1.71 19.7 19.7 0 0 0-5.985-2.24zm0 0l-7.083.04a79.82 79.82 0 0 0-9.893-1.61 74.87 74.87 0 0 0 10.276-1.71c3.72.93 6.13 2.05 6.7 3.28zM.08 5.98C1.238 2.64 16.01 0 34.06 0s32.82 2.64 33.978 5.98H.082zm33.98 19.93c5.61 0 10.914.26 15.58.72-4.666.45-9.97.71-15.58.71s-10.916-.26-15.58-.71c4.666-.46 9.962-.72 15.58-.72zm0 16.53a157.873 157.873 0 0 1-16.986-.86 170.125 170.125 0 0 1 33.97 0 157.97 157.97 0 0 1-16.983.86zm0 14.8a157.345 157.345 0 0 1-16.944-.85 169.287 169.287 0 0 1 33.886 0 157.44 157.44 0 0 1-16.94.85zm0-44.42a157.18 157.18 0 0 1-16.944-.86 169.287 169.287 0 0 1 33.886 0 157.276 157.276 0 0 1-16.94.86zM62 28.66l-57.13.36a71.063 71.063 0 0 1 13.607-2.39c4.664.45 9.96.71 15.58.71s10.914-.26 15.58-.71a76.894 76.894 0 0 1 12.364 2.03zM34.06 64.65c-15.385 0-28.395-1.92-32.61-4.55a17.484 17.484 0 0 1 4.445-1.75l55-.35a20.688 20.688 0 0 1 5.772 2.1c-4.212 2.63-17.22 4.55-32.606 4.55zM5.86 43.54a72.87 72.87 0 0 1 11.212-1.96 168.157 168.157 0 0 0 33.97 0 81.262 81.262 0 0 1 9.885 1.61zm.033-29.62a73 73 0 0 1 11.22-1.96 167.328 167.328 0 0 0 33.887 0 79.82 79.82 0 0 1 9.893 1.61zm0 44.43a71.8 71.8 0 0 1 11.22-1.96 169.287 169.287 0 0 0 33.887 0A79.82 79.82 0 0 1 60.893 58zm11.22-46.39A74.87 74.87 0 0 1 6.84 10.25c6.215-1.55 16.09-2.56 27.22-2.56s21 1.01 27.218 2.56A74.87 74.87 0 0 1 51 11.96a169.287 169.287 0 0 0-33.882 0zm16.944 8.55c-12.132 0-22.775-1.2-28.81-2.99 6.035-1.8 16.678-2.99 28.81-2.99s22.775 1.19 28.81 2.99c-6.03 1.79-16.674 2.99-28.806 2.99zm-15.58 6.12a80.14 80.14 0 0 1-11.64-1.85 76.436 76.436 0 0 1 10.277-1.71 169.287 169.287 0 0 0 33.886 0 76.436 76.436 0 0 1 10.276 1.71 80.146 80.146 0 0 1-11.638 1.85c-4.666-.46-9.97-.72-15.58-.72s-10.912.26-15.577.72zM6.25 32.32c6.173-1.63 16.322-2.7 27.807-2.7s21.634 1.07 27.806 2.7c-6.172 1.64-16.32 2.71-27.806 2.71s-21.63-1.07-27.802-2.71zm0 7.41a75.443 75.443 0 0 1 10.822-1.85 170.125 170.125 0 0 0 33.97 0 75.443 75.443 0 0 1 10.82 1.85 75.443 75.443 0 0 1-10.82 1.85 170.125 170.125 0 0 0-33.97 0 75.443 75.443 0 0 1-10.817-1.85zm27.807 10.11c-11.485 0-21.634-1.07-27.806-2.7 6.173-1.64 16.322-2.71 27.807-2.71s21.634 1.07 27.806 2.71c-6.168 1.63-16.317 2.7-27.802 2.7zM6.25 54.54a74.067 74.067 0 0 1 10.822-1.85 168.157 168.157 0 0 0 33.97 0 74.067 74.067 0 0 1 10.82 1.85A74.583 74.583 0 0 1 51 56.39a169.287 169.287 0 0 0-33.886 0 74.583 74.583 0 0 1-10.86-1.85zm.588-44.29C2.548 9.19.002 7.85.002 6.41a1.275 1.275 0 0 1 .076-.43h67.958a1.276 1.276 0 0 1 .077.43c0 1.44-2.546 2.78-6.837 3.84-6.215-1.55-16.09-2.56-27.22-2.56s-21 1.01-27.214 2.56zm-5.6 5.56a15.96 15.96 0 0 1 4.657-1.89l55-.35a19.7 19.7 0 0 1 5.985 2.24 15.232 15.232 0 0 1-4.01 1.71c-6.036-1.8-16.68-2.99-28.81-2.99s-22.776 1.19-28.812 2.99a15.232 15.232 0 0 1-4.008-1.71zm32.82 13.81c-11.484 0-21.633 1.07-27.805 2.7a18.947 18.947 0 0 1-4.8-1.84 14.683 14.683 0 0 1 3.422-1.46l57.13-.36a17.55 17.55 0 0 1 4.664 1.82 18.932 18.932 0 0 1-4.8 1.84c-6.175-1.63-16.324-2.7-27.81-2.7zM1.46 45.28a17.265 17.265 0 0 1 4.4-1.74l55.07-.35a20.572 20.572 0 0 1 5.73 2.09 18.426 18.426 0 0 1-4.795 1.86c-6.172-1.64-16.32-2.71-27.806-2.71S12.423 45.5 6.25 47.14a18.426 18.426 0 0 1-4.79-1.86zM.013 13.95c.17-1.39 2.682-2.66 6.828-3.7a74.87 74.87 0 0 0 10.276 1.71 73 73 0 0 0-11.22 1.96zm17.1 42.44a71.8 71.8 0 0 0-11.22 1.96l-5.884.03A.766.766 0 0 1 0 58.24v-.07c.085-1.35 2.383-2.6 6.25-3.63a74.583 74.583 0 0 0 10.868 1.85zm-.042-14.81a72.87 72.87 0 0 0-11.213 1.96l-5.85.03A.766.766 0 0 1 0 43.43v-.07c.076-1.35 2.383-2.6 6.25-3.63a75.443 75.443 0 0 0 10.825 1.85zM.008 58.38l5.883-.03a17.484 17.484 0 0 0-4.443 1.75 2.63 2.63 0 0 1-1.433-1.72zm.068-29.33A1.275 1.275 0 0 1 0 28.62c0-1.44 2.545-2.77 6.836-3.84a80.14 80.14 0 0 0 11.64 1.85 71.063 71.063 0 0 0-13.6 2.39zm6.76-4.27C2.962 23.82.52 22.64.076 21.36h6.76a76.436 76.436 0 0 0 10.276 1.71 76.436 76.436 0 0 0-10.27 1.71zM6.25 39.73C2.314 38.69 0 37.41 0 36.03a.766.766 0 0 1 .008-.14H5.72a73.234 73.234 0 0 0 11.35 1.99 75.443 75.443 0 0 0-10.815 1.85zm0 14.81C2.314 53.49 0 52.21 0 50.84a1.233 1.233 0 0 1 .076-.43h4.7a66.693 66.693 0 0 0 12.294 2.28 74.067 74.067 0 0 0-10.815 1.85zM1.233 15.81A2.246 2.246 0 0 1 0 14.1a.943.943 0 0 1 .008-.15l5.883-.03a15.96 15.96 0 0 0-4.65 1.89zM.076 21.36A1.233 1.233 0 0 1 0 20.93a2.246 2.246 0 0 1 1.234-1.71 18.11 18.11 0 0 0 5.6 2.14H.074zm4.793 7.66a14.683 14.683 0 0 0-3.423 1.46 3.09 3.09 0 0 1-1.37-1.43zm-3.415 5.16a17.655 17.655 0 0 0 4.266 1.71H.01a2.594 2.594 0 0 1 1.453-1.71zm4.4 9.36a17.265 17.265 0 0 0-4.4 1.74 2.616 2.616 0 0 1-1.447-1.71zm-4.41 5.45a14.353 14.353 0 0 0 3.33 1.42h-4.7a3.033 3.033 0 0 1 1.378-1.42zm5.39-24.21c-4.292 1.07-6.837 2.4-6.837 3.84v-7.26h.076c.45 1.28 2.894 2.46 6.768 3.42zM-.003 50.84c0 1.37 2.315 2.65 6.25 3.7-3.867 1.03-6.165 2.28-6.25 3.63v-7.33zm0-7.48v-7.33c0 1.38 2.315 2.66 6.25 3.7C2.387 40.76.08 42.01.005 43.36zm0-29.41V6.41c0 1.44 2.545 2.78 6.836 3.84-4.146 1.04-6.658 2.31-6.828 3.7h-.008z"/></svg>