<svg xmlns="http://www.w3.org/2000/svg" width="71.5" height="70.625" viewBox="0 0 71.5 70.625"><defs><style>.cls-1 { fill: #65aacd; fill-rule: evenodd; }</style></defs><path class="cls-1" d="M70.494 7.284a1.694 1.694 0 0 1 1.022 1.6 129.74 129.74 0 0 1-5.073 30.487c-6.23 20.44-17.126 31.25-31.528 31.25-14.42 0-25.034-10.817-30.686-31.29A128.4 128.4 0 0 1 .015 8.83a1.705 1.705 0 0 1 .92-1.507c.578-.3 14.478-7.33 34.83-7.33a86.328 86.328 0 0 1 34.728 7.29zm-35.58 59.95c28.737 0 32.686-49.14 33.146-57.31a83 83 0 0 0-32.294-6.542 81.772 81.772 0 0 0-32.328 6.51c.21 7.92 2.714 57.342 31.476 57.342zM68.06 9.924c-.46 8.17-4.41 57.31-33.145 57.31-28.762 0-31.265-49.42-31.477-57.343a81.772 81.772 0 0 1 32.328-6.508A83 83 0 0 1 68.06 9.925zM45.98 37.61V23.222a1.7 1.7 0 0 0-1.7-1.693h-3.4v-4.233a1.7 1.7 0 0 0-3.4 0v4.232h-4.256v-4.233a1.7 1.7 0 0 0-3.4 0v4.232h-3.4a1.7 1.7 0 0 0-1.7 1.692V37.61a1.7 1.7 0 0 0 1.7 1.693h6.81v14.39a1.702 1.702 0 0 0 3.404 0v-14.39h7.66a1.7 1.7 0 0 0 1.68-1.693z"/></svg>