<svg xmlns="http://www.w3.org/2000/svg" width="71.532" height="71.437" viewBox="0 0 71.532 71.437"><defs><style>.cls-1 { fill: #65aacd; fill-rule: evenodd; }</style></defs><path class="cls-1" d="M35.764-.015A35.73 35.73 0 1 1 .01 35.715 35.783 35.783 0 0 1 35.763-.016zM68.1 35.715A32.337 32.337 0 1 0 35.765 68.03 32.357 32.357 0 0 0 68.1 35.715zM35.765 3.4A32.314 32.314 0 1 1 3.427 35.714 32.357 32.357 0 0 1 35.764 3.4zM63.93 35.714a1.71 1.71 0 0 0-3.418 0A24.763 24.763 0 0 1 35.764 60.43a1.708 1.708 0 1 0 0 3.417A28.185 28.185 0 0 0 63.93 35.714zm-6.81 0a1.71 1.71 0 0 0-3.42 0A17.948 17.948 0 0 1 35.765 53.63a1.708 1.708 0 1 0 0 3.417A21.37 21.37 0 0 0 57.12 35.714zm-15.33.128a6.153 6.153 0 1 0-6.154 6.148 6.147 6.147 0 0 0 6.158-6.148zM37.472 9.276a1.707 1.707 0 0 0-1.71-1.708A28.185 28.185 0 0 0 7.607 35.714a1.71 1.71 0 0 0 3.418 0 24.764 24.764 0 0 1 24.74-24.73 1.7 1.7 0 0 0 1.71-1.708zm0 6.8a1.707 1.707 0 0 0-1.71-1.707 21.364 21.364 0 0 0-21.346 21.34 1.71 1.71 0 0 0 3.418 0 17.95 17.95 0 0 1 17.93-17.926 1.7 1.7 0 0 0 1.708-1.703z"/></svg>