<svg xmlns="http://www.w3.org/2000/svg" width="69.313" height="68.406" viewBox="0 0 69.313 68.406"><defs><style>.cls-1 { fill: #65aacd; fill-rule: evenodd; }</style></defs><path class="cls-1" d="M25.257 36.557l7.085 7.386L8.63 67.048a4.944 4.944 0 0 1-6.958-.17l-.3-.306a4.873 4.873 0 0 1 .163-6.91zm41.48-15.85a1.712 1.712 0 0 0-3.424 0 17.38 17.38 0 0 1-17.42 17.3 1.7 1.7 0 1 0 0 3.4 20.8 20.8 0 0 0 20.843-20.7zM46.744-.004a22.408 22.408 0 1 1-22.558 22.41A22.48 22.48 0 0 1 46.745-.004z"/></svg>