<svg xmlns="http://www.w3.org/2000/svg" width="71.218" height="71.312" viewBox="0 0 71.218 71.312">
  <defs>
    <style>
      .cls-1 {
        fill: #65aacd;
        fill-rule: evenodd;
      }
    </style>
  </defs>
  <path class="cls-1" d="M547.176,404.728l-15.748,44.153H499.9L484.15,404.728h63.026ZM533.4,415.987a1.7,1.7,0,0,0-3.239-1.01l-6.785,21.8a1.7,1.7,0,0,0,1.111,2.123,1.76,1.76,0,0,0,.509.076,1.694,1.694,0,0,0,1.62-1.189Zm-16.036,21.007V414.917a1.7,1.7,0,1,0-3.392,0v22.077A1.7,1.7,0,1,0,517.359,436.994Zm-10.516,1.9a1.7,1.7,0,0,0,1.111-2.123l-6.784-21.8a1.7,1.7,0,0,0-3.24,1.01l6.785,21.8a1.692,1.692,0,0,0,1.619,1.189A1.755,1.755,0,0,0,506.843,438.9Zm44.123-36.842a1.672,1.672,0,0,1,.212,1.545l-16.96,47.549a1.684,1.684,0,0,1-1.595,1.129H498.7a1.682,1.682,0,0,1-1.594-1.129L480.147,403.6a1.7,1.7,0,0,1,1.594-2.267h67.843A1.687,1.687,0,0,1,550.966,402.054Zm-19.538,46.827,15.748-44.153H484.15L499.9,448.881h31.53Zm-17.394-60.048a1.7,1.7,0,0,0,1.162,2.106l-33.777-6.623a1.695,1.695,0,0,1,.645-3.328l32.395,6.351Zm1.162,2.106a1.7,1.7,0,0,1-1.162-2.106l0.425-1.494,3.341,0.654-0.509,1.774A1.691,1.691,0,0,1,515.663,391a2.257,2.257,0,0,1-.238-0.017A2.085,2.085,0,0,1,515.2,390.939Zm2.349-8.219a1.7,1.7,0,0,1,1.162,2.1l-0.907,3.176-3.341-.654,0.983-3.456A1.7,1.7,0,0,1,517.545,382.72Zm31.717,14.9-33.837-6.64a2.257,2.257,0,0,0,.238.017,1.691,1.691,0,0,0,1.628-1.231l0.509-1.774,32.106,6.291a1.7,1.7,0,0,1-.322,3.371A2.07,2.07,0,0,1,549.262,397.621Z" transform="translate(-480.063 -380.969)"/>
</svg>
