<svg xmlns="http://www.w3.org/2000/svg" width="69.313" height="68.406" viewBox="0 0 69.313 68.406">
  <defs>
    <style>
      .cls-1 {
        fill: #65aacd;
        fill-rule: evenodd;
      }
    </style>
  </defs>
  <path class="cls-1" d="M663.163,837.651l7.085,7.386-23.713,23.105a4.944,4.944,0,0,1-6.957-.17l-0.3-.306a4.873,4.873,0,0,1,.163-6.911ZM704.642,821.8a1.712,1.712,0,0,0-3.423,0A17.381,17.381,0,0,1,683.8,839.1a1.7,1.7,0,1,0,0,3.4A20.8,20.8,0,0,0,704.642,821.8ZM684.651,801.09A22.408,22.408,0,1,1,662.093,823.5,22.481,22.481,0,0,1,684.651,801.09Z" transform="translate(-637.906 -801.094)"/>
</svg>
