<svg xmlns="http://www.w3.org/2000/svg" width="73.094" height="74" viewBox="0 0 73.094 74">
  <defs>
    <style>
      .cls-1 {
        fill: #65aacd;
        fill-rule: evenodd;
      }
    </style>
  </defs>
  <path class="cls-1" d="M709.661,1255.05a1.7,1.7,0,0,1-1.639,2.15h-6.441l-0.68-3.41h4.9l-7.749-28.92h3.518Zm-1.639-33.59a1.705,1.705,0,0,1,0,3.41h-6.449l-0.408-1.51a1.7,1.7,0,1,0-3.28.89l0.17,0.62H673.186a1.708,1.708,0,0,0,1.7-1.7v-1.71h33.137Zm-6.449,3.41h-3.518l-0.17-.62a1.7,1.7,0,1,1,3.28-.89Zm-4.138,28.92,0.68,3.41h-3.348l-0.518-3.41h3.186Zm-6.627,0,0.518,3.41H674.885v-3.41h15.923Zm-15.923-32.33v1.71a1.7,1.7,0,1,1-3.4,0v-1.71h3.4Zm0-36.58v36.58h-3.4v-36.58A1.7,1.7,0,1,1,674.885,1184.88Zm-1.7,39.99h-24.92l0.22-.84a1.7,1.7,0,1,0-3.279-.88l-0.459,1.72h-6.4a1.705,1.705,0,0,1,0-3.41h33.136v1.71A1.708,1.708,0,0,0,673.186,1224.87Zm-1.7,28.92H649.905l2.243-6.94a1.7,1.7,0,1,0-3.245-1l-2.566,7.94h-5.778l7.707-28.92h49.789l7.749,28.92h-4.9l-1.877-9.4a1.7,1.7,0,0,0-3.331.68l1.742,8.72h-3.186l-0.476-3.1a1.7,1.7,0,1,0-3.373.47l0.408,2.63H674.885v-17.01a1.7,1.7,0,1,0-3.4,0v17.01Zm-21.581,0h21.581v3.41H648.8Zm-2.617-31.84a1.694,1.694,0,0,1,1.2,2.08l-0.22.84h-3.518l0.459-1.72A1.694,1.694,0,0,1,647.288,1221.95Zm0.978,2.92-7.707,28.92h5.778l-1.105,3.41H638.35a1.711,1.711,0,0,1-1.351-.67,1.731,1.731,0,0,1-.289-1.48l8.038-30.18h3.518Z" transform="translate(-636.656 -1183.19)"/>
</svg>
