<svg xmlns="http://www.w3.org/2000/svg" width="64.906" height="68.251" viewBox="0 0 64.906 68.251">
  <defs>
    <style>
      .cls-1 {
        fill: #65aacd;
        fill-rule: evenodd;
      }
    </style>
  </defs>
  <path class="cls-1" d="M499.129,1009.92a8.544,8.544,0,0,1-.574-12.07l9.2-10.111a8.547,8.547,0,0,1,12.071-.574m25.289,22.985a8.544,8.544,0,0,1,.574,12.07l-9.2,10.11a8.55,8.55,0,0,1-12.07.57m-10.576-6.15-21.972,24.84a4.906,4.906,0,0,1-6.94.33l-0.316-.28a4.912,4.912,0,0,1-.33-6.94l21.972-24.84m16.265,11.32-21.495-19.54,20.694-22.751,21.5,19.541Z" transform="translate(-483 -984.969)"/>
</svg>
