<svg xmlns="http://www.w3.org/2000/svg" width="71.532" height="71.469" viewBox="0 0 71.532 71.469"><defs><style>.cls-1 { fill: #65aacd; fill-rule: evenodd; }</style></defs><path class="cls-1" d="M17.324 35.61a18.94 18.94 0 1 1 18.943 18.93 18.948 18.948 0 0 1-18.943-18.93zm24.307-5.656l.98-3.812a12.15 12.15 0 0 0-4.9-1.114v-2.97h-3.3v3.2c-3.618.715-5.712 3.037-5.712 6.015 0 3.267 2.47 4.96 6.08 6.177 2.5.842 3.583 1.65 3.583 2.935 0 1.344-1.32 2.093-3.243 2.093a11.983 11.983 0 0 1-5.61-1.49l-1.014 3.95a13.555 13.555 0 0 0 5.747 1.453v3.21h3.312v-3.447c3.882-.672 6.01-3.24 6.01-6.245 0-3.037-1.625-4.89-5.644-6.312-2.87-1.08-4.052-1.787-4.052-2.9 0-.945.706-1.89 2.9-1.89a11.2 11.2 0 0 1 4.865 1.148zm16.977 5.657a22.345 22.345 0 1 0-22.34 22.334 22.356 22.356 0 0 0 22.34-22.333zM6.954 3.41h57.64a3.534 3.534 0 0 1 3.533 3.53v57.6a3.535 3.535 0 0 1-3.533 3.532H6.954a3.535 3.535 0 0 1-3.534-3.53V6.94A3.534 3.534 0 0 1 6.954 3.41zm0-3.4h57.64a6.95 6.95 0 0 1 6.94 6.935v57.6a6.95 6.95 0 0 1-6.94 6.934H6.954a6.95 6.95 0 0 1-6.94-6.935v-57.6a6.95 6.95 0 0 1 6.94-6.94zm57.64 3.4H6.953A3.534 3.534 0 0 0 3.42 6.94v57.6a3.535 3.535 0 0 0 3.534 3.532h57.64a3.535 3.535 0 0 0 3.533-3.53V6.94a3.534 3.534 0 0 0-3.533-3.532z"/></svg>