<svg xmlns="http://www.w3.org/2000/svg" width="68.094" height="68.062" viewBox="0 0 68.094 68.062">
  <defs>
    <style>
      .cls-1 {
        fill: #65aacd;
        fill-rule: evenodd;
      }
    </style>
  </defs>
  <path class="cls-1" d="M549.721,191.091v51.046a8.513,8.513,0,0,1-8.514,8.507H490.124a8.513,8.513,0,0,1-8.514-8.507V191.091a8.514,8.514,0,0,1,8.514-8.508h51.083A8.514,8.514,0,0,1,549.721,191.091ZM542.058,203a2.55,2.55,0,0,0-2.554-2.552H524.179a2.553,2.553,0,1,0,0,5.1H539.5A2.55,2.55,0,0,0,542.058,203Zm-3,26.613a2.576,2.576,0,1,0-3.645-3.642l-10.948,10.933a2.575,2.575,0,0,0,0,3.641,2.581,2.581,0,0,0,3.652,0ZM509.706,203a2.55,2.55,0,0,0-2.555-2.552h-5.108v-5.105a2.554,2.554,0,0,0-5.108,0v5.105h-5.109a2.553,2.553,0,1,0,0,5.1h5.109v5.1a2.554,2.554,0,0,0,5.108,0v-5.1h5.108A2.55,2.55,0,0,0,509.706,203Zm-2.836,26.613a2.579,2.579,0,0,0-3.652-3.642l-3.644,3.642-3.644-3.642a2.579,2.579,0,0,0-3.652,3.642l3.652,3.649-3.652,3.642a2.575,2.575,0,0,0,0,3.641,2.581,2.581,0,0,0,3.652,0l3.644-3.641,3.644,3.641a2.578,2.578,0,0,0,3.652-3.641l-3.644-3.642Z" transform="translate(-481.625 -182.594)"/>
</svg>
