<svg xmlns="http://www.w3.org/2000/svg" width="65.562" height="67.222" viewBox="0 0 65.562 67.222">
  <defs>
    <style>
      .cls-1 {
        fill: #65aacd;
        fill-rule: evenodd;
      }
    </style>
  </defs>
  <path class="cls-1" d="M812.913,1051.28h48.494V987.327h-11.27v19.323l-9.221-4.79-9.562,4.28V987.327H812.913v63.953Zm48.494,1.63H812.913a1.629,1.629,0,0,1-1.625-1.63V987.327a1.627,1.627,0,0,1,1.625-1.627h18.441a1.627,1.627,0,0,1,1.625,1.627v16.3l7.275-3.25a1.62,1.62,0,0,1,1.409.04l6.849,3.55V987.327a1.626,1.626,0,0,1,1.625-1.627h11.27a1.626,1.626,0,0,1,1.624,1.627v63.953A1.628,1.628,0,0,1,861.407,1052.91Zm-46.869-3.26h45.244v-60.7h-8.02v17.7a1.621,1.621,0,0,1-2.372,1.44l-8.527-4.42-8.847,3.95a1.625,1.625,0,0,1-2.287-1.48V988.954H814.538v60.7Zm-8.959,1.63H799.1V987.327h6.479v63.953Zm0,1.63H799.1a1.629,1.629,0,0,1-1.625-1.63V987.327A1.627,1.627,0,0,1,799.1,985.7h6.478a1.627,1.627,0,0,1,1.625,1.627v63.953A1.629,1.629,0,0,1,805.578,1052.91Zm-4.853-3.26h3.228v-60.7h-3.228v60.7Z" transform="translate(-797.469 -985.688)"/>
</svg>
