<svg xmlns="http://www.w3.org/2000/svg" width="71.5" height="70.59" viewBox="0 0 71.5 70.59"><defs><style>.cls-1 { fill: #65aacd; fill-rule: evenodd; }</style></defs><path class="cls-1" d="M71.506 21.26v39.13A10.216 10.216 0 0 1 61.29 70.6H10.206A10.216 10.216 0 0 1-.01 60.39V21.26a10.223 10.223 0 0 1 10.216-10.21H61.29a10.223 10.223 0 0 1 10.216 10.21zm-3.4 39.13V21.26a6.822 6.822 0 0 0-6.81-6.81h-51.09a6.822 6.822 0 0 0-6.81 6.81v39.13a6.816 6.816 0 0 0 6.81 6.81H61.29a6.816 6.816 0 0 0 6.81-6.81zm0-39.13v39.13a6.816 6.816 0 0 1-6.81 6.81h-51.09a6.816 6.816 0 0 1-6.81-6.81V21.26a6.822 6.822 0 0 1 6.81-6.81H61.29a6.822 6.822 0 0 1 6.81 6.81zM53.522 41.98a17.48 17.48 0 1 0-17.48 17.47 17.488 17.488 0 0 0 17.475-17.47zm-3.3-34.94v4.01h-3.406V7.04c0-1.81-.92-3.65-2.988-3.65h-14.9c-1.967 0-4.25 1.54-4.25 3.52v4.14h-3.405V6.91c0-4.08 4.036-6.92 7.655-6.92h14.9c3.703 0 6.394 2.97 6.394 7.05zM36.038 27.92a14.065 14.065 0 1 1-14.074 14.06 14.087 14.087 0 0 1 14.074-14.06zm8.25 15.31v-3.64h-6.426v-6.48h-3.644v6.48H27.78v3.64h6.438v6.39h3.644v-6.39h6.428z"/></svg>