<svg xmlns="http://www.w3.org/2000/svg" width="64.906" height="68.251" viewBox="0 0 64.906 68.251"><defs><style>.cls-1 { fill: #65aacd; fill-rule: evenodd; }</style></defs><path class="cls-1" d="M16.13 24.95a8.544 8.544 0 0 1-.575-12.07l9.2-10.11a8.547 8.547 0 0 1 12.07-.574m25.29 22.985a8.544 8.544 0 0 1 .574 12.07l-9.2 10.11a8.55 8.55 0 0 1-12.07.57m-10.577-6.15L8.87 66.62a4.906 4.906 0 0 1-6.94.33l-.315-.28a4.912 4.912 0 0 1-.33-6.94l21.972-24.84m16.265 11.32L18.027 26.67 38.72 3.92l21.5 19.54z"/></svg>