<svg xmlns="http://www.w3.org/2000/svg" width="68.094" height="68.06" viewBox="0 0 68.094 68.06"><defs><style>.cls-1 { fill: #65aacd; fill-rule: evenodd; }</style></defs><path class="cls-1" d="M68.096 8.5v51.04a8.513 8.513 0 0 1-8.514 8.51H8.5a8.513 8.513 0 0 1-8.515-8.51V8.5A8.513 8.513 0 0 1 8.5-.01H59.58a8.513 8.513 0 0 1 8.514 8.51zm-9.783 24.73a1.654 1.654 0 0 0-.485-1.27l-10.94-10.94a1.704 1.704 0 1 0-2.41 2.41l9.8 9.8-9.8 9.79a1.704 1.704 0 0 0 2.41 2.41l10.94-10.94a1.646 1.646 0 0 0 .485-1.26zM38.52 22.68a1.704 1.704 0 0 0-3.288-.9l-5.874 21.54a1.704 1.704 0 0 0 3.286.9zm-14.747-.1a1.704 1.704 0 0 0-2.41-2.41l-10.94 10.94a1.89 1.89 0 0 0 0 2.53l10.94 10.94a1.704 1.704 0 0 0 2.41-2.41l-9.8-9.79z"/></svg>