<svg xmlns="http://www.w3.org/2000/svg" width="71.532" height="71.469" viewBox="0 0 71.532 71.469">
  <defs>
    <style>
      .cls-1 {
        fill: #65aacd;
        fill-rule: evenodd;
      }
    </style>
  </defs>
  <path class="cls-1" d="M812.23,216.486a18.939,18.939,0,1,1,18.943,18.93A18.948,18.948,0,0,1,812.23,216.486Zm24.307-5.657,0.979-3.812a12.15,12.15,0,0,0-4.9-1.114v-2.97h-3.3v3.2c-3.618.715-5.712,3.037-5.712,6.015,0,3.267,2.469,4.96,6.079,6.177,2.5,0.842,3.584,1.65,3.584,2.935,0,1.344-1.32,2.093-3.244,2.093a11.983,11.983,0,0,1-5.611-1.489l-1.013,3.948a13.555,13.555,0,0,0,5.747,1.454v3.208h3.312v-3.446c3.882-.672,6.011-3.241,6.011-6.245,0-3.037-1.626-4.891-5.645-6.312-2.869-1.081-4.052-1.787-4.052-2.9,0-.945.706-1.889,2.9-1.889A11.2,11.2,0,0,1,836.537,210.829Zm16.976,5.657a22.345,22.345,0,1,0-22.34,22.333A22.356,22.356,0,0,0,853.513,216.486Zm-51.653-32.2H859.5a3.534,3.534,0,0,1,3.533,3.53v57.6a3.535,3.535,0,0,1-3.533,3.531H801.86a3.535,3.535,0,0,1-3.534-3.531v-57.6A3.534,3.534,0,0,1,801.86,184.285Zm0-3.4H859.5a6.949,6.949,0,0,1,6.939,6.934v57.6a6.949,6.949,0,0,1-6.939,6.934H801.86a6.949,6.949,0,0,1-6.939-6.934v-57.6A6.949,6.949,0,0,1,801.86,180.881Zm57.639,3.4H801.86a3.534,3.534,0,0,0-3.534,3.53v57.6a3.535,3.535,0,0,0,3.534,3.531H859.5a3.535,3.535,0,0,0,3.533-3.531v-57.6A3.534,3.534,0,0,0,859.5,184.285Z" transform="translate(-794.906 -180.875)"/>
</svg>
