<svg xmlns="http://www.w3.org/2000/svg" width="71.938" height="71.875" viewBox="0 0 71.938 71.875"><defs><style>.cls-1 { fill: #65aacd; fill-rule: evenodd; }</style></defs><path class="cls-1" d="M54 4.823a35.914 35.914 0 0 1 14.754 16.52 1.71 1.71 0 0 1-.35 1.895 1.594 1.594 0 0 1-.43.307l-1.574.815a32.48 32.48 0 0 0-7.41-11.435 32.147 32.147 0 0 0-8.16-5.934c-.126-.065-.234-.125-.35-.18a31.965 31.965 0 0 0-3.155-1.37l.99-1.675a1.7 1.7 0 0 1 2.07-.73c.1.036.585.223 1.35.59.604.288 1.37.68 2.264 1.198zm-2.264-1.2c-.766-.368-1.255-.555-1.352-.59a1.7 1.7 0 0 0-2.07.73l-.99 1.675a32.79 32.79 0 0 0-22.792.03l-1.008-1.706a1.69 1.69 0 0 0-2-.754 36.168 36.168 0 0 1 30.212.615zM50.48 6.807l-8.69 14.7a14.024 14.024 0 0 1 6.036 4.427c-.278-.338-.574-.658-.887-.97a15.39 15.39 0 0 0-8.59-4.35l8.975-15.18a31.965 31.965 0 0 1 3.156 1.373zm-3.155-1.37l-8.974 15.18a15.226 15.226 0 0 0-4.857.02l-8.96-15.168a32.79 32.79 0 0 1 22.792-.032zM49.86 29.03l15.086-7.767A32.843 32.843 0 0 0 50.83 6.988a32.147 32.147 0 0 1 8.16 5.934 32.48 32.48 0 0 1 7.41 11.435l-15.364 7.9a15.04 15.04 0 0 0-1.177-3.227zM21.526 3.008a1.69 1.69 0 0 1 2 .754l1.008 1.707a30.292 30.292 0 0 0-3.15 1.374l-.018-.03a33.01 33.01 0 0 0-8.454 6.12 31.8 31.8 0 0 0-6.017 8.33l.006.005a32 32 0 0 0-1.37 3.13l-1.665-.858a1.7 1.7 0 0 1-.81-2.11c.1-.217.188-.428.285-.646A35.972 35.972 0 0 1 21.527 3.008zM66.46 47.32l-15.166-8.948a15.57 15.57 0 0 0-.253-6.115l15.365-7.9a32.7 32.7 0 0 1 .055 22.964zM47.554 32.433a12.025 12.025 0 0 0-2.124-4.04.748.748 0 0 1-.073-.1 10.772 10.772 0 0 0-5.944-3.964 1.987 1.987 0 0 0-.2-.048c-.17-.048-.338-.1-.507-.133a1.64 1.64 0 0 1-1.056-.922 1.684 1.684 0 0 1 .09-1.562l.616-1.05a15.39 15.39 0 0 1 8.588 4.35c.313.312.61.632.887.97a16.52 16.52 0 0 1 1.98 3.123l.054-.03a15.04 15.04 0 0 1 1.177 3.227l-1.327.687a1.7 1.7 0 0 1-1.46.048 1.652 1.652 0 0 1-.7-.556zm3.482-.175a15.57 15.57 0 0 1 .253 6.115l-1.147-.676a1.69 1.69 0 0 0-1.563-.09 1.653 1.653 0 0 0-.736.64 12.24 12.24 0 0 0-.29-5.814 1.652 1.652 0 0 0 .694.56 1.7 1.7 0 0 0 1.46-.048zm-30.15.048L5.53 24.4a32 32 0 0 1 1.37-3.13l15.14 7.784a16.4 16.4 0 0 1 3.078-4.342 13.837 13.837 0 0 1 4.93-3.2L21.382 6.844a30.292 30.292 0 0 1 3.15-1.375l8.96 15.166a15.462 15.462 0 0 0-12.605 11.67zm26.208 14.37a16.425 16.425 0 0 1-4.345 3.077l.048.1a14.425 14.425 0 0 1-3.24 1.164l-.7-1.35a1.7 1.7 0 0 1-.05-1.46 1.647 1.647 0 0 1 .5-.646 12.055 12.055 0 0 0 8.534-9.31 1.653 1.653 0 0 1 .736-.64 1.69 1.69 0 0 1 1.563.09l1.147.676a15.29 15.29 0 0 1-.94 3.4l-.05-.024a13.816 13.816 0 0 1-3.203 4.924zM22.13 32.946l-1.243-.64a15.462 15.462 0 0 1 12.607-11.67l.61 1.032a1.68 1.68 0 0 1 .09 1.562 1.656 1.656 0 0 1-.343.51 1.725 1.725 0 0 1-.874.466 10.5 10.5 0 0 0-5.444 2.92 12.9 12.9 0 0 0-2.98 4.775 1.706 1.706 0 0 1-2.422 1.044zm-1.243-.64l1.243.64a1.706 1.706 0 0 0 2.42-1.044 12.9 12.9 0 0 1 2.98-4.775 10.5 10.5 0 0 1 5.445-2.92 1.725 1.725 0 0 0 .875-.464 1.656 1.656 0 0 0 .343-.51 1.68 1.68 0 0 0-.09-1.563l-.61-1.03a15.226 15.226 0 0 1 4.858-.02l-.614 1.05a1.684 1.684 0 0 0-.09 1.562 1.64 1.64 0 0 0 1.055.92 12.084 12.084 0 0 0-14.53 14.427 1.714 1.714 0 0 0-2.468-.887l-1.056.62a15.39 15.39 0 0 1 .24-6.005zM5.457 47.28A32.7 32.7 0 0 1 5.53 24.4l15.357 7.905a15.39 15.39 0 0 0-.24 6.006zm42.006 19.086l-7.9-15.354a14.425 14.425 0 0 0 3.236-1.168l7.747 15.04a31.812 31.812 0 0 0 8.334-6.012 32.7 32.7 0 0 0 6.126-8.45L50.348 41.77a15.29 15.29 0 0 0 .94-3.4l15.172 8.948a32.5 32.5 0 0 1-18.997 19.048zm-15-18.858a12.224 12.224 0 0 0 6.843.048 1.647 1.647 0 0 0-.5.646 1.7 1.7 0 0 0 .048 1.46l.7 1.35a15.567 15.567 0 0 1-7.265-.024l.687-1.327a1.7 1.7 0 0 0 .048-1.458 1.662 1.662 0 0 0-.557-.694zm-3.374 2.25a16.564 16.564 0 0 1-3.127-1.98c-.338-.276-.657-.57-.97-.885a15.38 15.38 0 0 1-4.352-8.582l1.057-.62a1.714 1.714 0 0 1 2.468.887 4.722 4.722 0 0 0 .145.59c.012.073.03.14.048.2a10.654 10.654 0 0 0 3.5 5.537c.067.066.133.12.2.175a12.044 12.044 0 0 0 4.406 2.423 1.662 1.662 0 0 1 .56.694 1.7 1.7 0 0 1-.047 1.46l-.688 1.326a15.033 15.033 0 0 1-3.23-1.176zm18.368 16.608a32.5 32.5 0 0 0 19-19.045l1.6.948a1.7 1.7 0 0 1 .736 2.063 34.068 34.068 0 0 1-7.5 10.958 35.3 35.3 0 0 1-10.826 7.406 1.712 1.712 0 0 1-2.2-.778zm-23.076-.024l7.906-15.354a15.567 15.567 0 0 0 7.265.024l7.9 15.354a32.768 32.768 0 0 1-23.066-.022zM3.774 48.268a1.71 1.71 0 0 0-.73 2.068c.036.1.223.585.59 1.35a36.072 36.072 0 0 1-.584-30.254 1.7 1.7 0 0 0 .81 2.11l1.664.857a32.7 32.7 0 0 0-.072 22.88zm17.76-6.52L6.828 50.43a33.006 33.006 0 0 0 14.466 14.46l7.772-15.076a15.033 15.033 0 0 0 3.23 1.176l-7.91 15.356A32.56 32.56 0 0 1 5.457 47.28l15.19-8.967a15.38 15.38 0 0 0 4.35 8.582c.315.314.634.61.972.886a14.017 14.017 0 0 1-4.43-6.03zM5.452 47.28a32.56 32.56 0 0 0 18.93 19.064l-.814 1.574a1.556 1.556 0 0 1-.308.428 1.713 1.713 0 0 1-1.9.35A35.915 35.915 0 0 1 4.83 53.95c-.518-.894-.91-1.66-1.2-2.263-.367-.766-.554-1.254-.59-1.35a1.71 1.71 0 0 1 .73-2.07zm55.95 14.066a36.023 36.023 0 0 1-50.87 0 35.624 35.624 0 0 1-5.69-7.4A35.915 35.915 0 0 0 21.37 68.69a1.713 1.713 0 0 0 1.9-.35 1.556 1.556 0 0 0 .308-.43l.814-1.573a32.768 32.768 0 0 0 23.076.024l.8 1.55a1.712 1.712 0 0 0 2.2.78 35.3 35.3 0 0 0 10.826-7.407 34.068 34.068 0 0 0 7.5-10.957 1.7 1.7 0 0 0-.736-2.063l-1.6-.947a32.7 32.7 0 0 0-.06-22.964l1.575-.815a1.594 1.594 0 0 0 .43-.307 1.71 1.71 0 0 0 .35-1.894A35.914 35.914 0 0 0 53.996 4.818a35.942 35.942 0 0 1 7.406 56.526z"/></svg>