<svg xmlns="http://www.w3.org/2000/svg" width="71.5" height="71.47" viewBox="0 0 71.5 71.47"><defs><style>.cls-1 { fill: #65aacd; fill-rule: evenodd; }</style></defs><path class="cls-1" d="M54.334 60.41a5.556 5.556 0 1 1-3.414 1.19 10.4 10.4 0 0 1 .706 1.37 1.678 1.678 0 0 0 2.07.93 2.13 2.13 0 0 0 .638 4.16 2.125 2.125 0 1 0 0-4.25 2.156 2.156 0 0 0-.63.09.466.466 0 0 0 .162-.06 1.7 1.7 0 0 0 .885-2.24c-.178-.41-.365-.8-.578-1.18a.882.882 0 0 1 .162-.01zm.417 1.19a1.7 1.7 0 0 1-.884 2.24.466.466 0 0 1-.162.06h-.01a1.678 1.678 0 0 1-2.068-.93 10.4 10.4 0 0 0-.706-1.37 5.4 5.4 0 0 1 3.252-1.18c.213.38.4.77.58 1.18zm-.27-20.78v1.72a1.705 1.705 0 0 1-3.22.78 27.813 27.813 0 0 0 3.22-2.5zm-.308 19.6a5.4 5.4 0 0 0-3.252 1.18c-2.486-4.21-7.348-6.82-13.47-7.23v-1.62a1.707 1.707 0 0 0-.774-1.43q1.38-.03 2.733-.18c6.717.88 12.03 4.19 14.762 9.28zm-16.72-7.67v1.62c-.563-.05-1.125-.06-1.7-.06s-1.142.01-1.7.06v-1.62a1.707 1.707 0 0 1 .808-1.45q.588.03 1.175.03c.213 0 .434 0 .647-.01a1.707 1.707 0 0 1 .77 1.43zm1.957-1.61q-1.354.15-2.734.18a1.74 1.74 0 0 0-.928-.27 1.722 1.722 0 0 0-.894.25c-.834-.03-1.66-.1-2.477-.2a28.417 28.417 0 0 1 3.37-.2 27.182 27.182 0 0 1 3.662.24zm-2.734.18c-.213.01-.434.01-.647.01q-.59 0-1.176-.03a1.722 1.722 0 0 1 .894-.25 1.74 1.74 0 0 1 .928.27zm.775 9.41a5.555 5.555 0 0 0-3.405-.1v-6.26c.562-.05 1.124-.06 1.7-.06s1.14.01 1.7.06v6.36zm-1.7 3.08a1.71 1.71 0 0 1-1.7-1.7v-1.48a5.555 5.555 0 0 1 3.407.1v1.38a1.71 1.71 0 0 1-1.71 1.7zm-5.678 2.13a5.564 5.564 0 0 1 3.976-5.31v1.48a1.703 1.703 0 0 0 3.406 0v-1.38a5.53 5.53 0 1 1-7.385 5.21zm7.663 0a2.13 2.13 0 1 0-2.13 2.12 2.128 2.128 0 0 0 2.127-2.12zm12.158-35.31H21.607L20.09 3.41h31.315zM34.048 54.37c-6.2.41-11.1 3.08-13.562 7.38a5.56 5.56 0 0 0-3.16-1.33c2.768-5.16 8.19-8.5 15.054-9.32.817.1 1.643.17 2.477.2a1.707 1.707 0 0 0-.81 1.45v1.62zM19.575 39.99h31.5v2.55a1.707 1.707 0 0 0 .187.78 27.456 27.456 0 0 1-15.23 4.61 27.178 27.178 0 0 1-16.543-5.7 1.872 1.872 0 0 0 .084-.54v-1.7zM18.298 0h34.904a1.692 1.692 0 0 1 1.234.54 1.67 1.67 0 0 1 .468 1.26l-1.7 30.63a1.7 1.7 0 0 1-1.7 1.6h-31.5a1.7 1.7 0 0 1-1.7-1.6l-1.7-30.63a1.672 1.672 0 0 1 .468-1.26A1.693 1.693 0 0 1 18.295 0zm3.312 30.63h28.283l1.515-27.22H20.09zm-3.738 5.96H52.78a1.7 1.7 0 0 1 1.7 1.7v2.53a27.813 27.813 0 0 1-3.22 2.5 1.707 1.707 0 0 1-.187-.78v-2.55h-31.5v1.7a1.872 1.872 0 0 1-.085.54 28.975 28.975 0 0 1-3.32-2.98v-.96a1.7 1.7 0 0 1 1.7-1.7zm-6.53 29.35a5.54 5.54 0 0 1 5.534-5.53c.153 0 .306.01.45.01-.23.42-.433.85-.62 1.28a1.716 1.716 0 0 0 .893 2.24 1.92 1.92 0 0 0-.724-.13 2.14 2.14 0 1 0 .723.13 1.792 1.792 0 0 0 .672.13 1.7 1.7 0 0 0 1.567-1.03 12.53 12.53 0 0 1 .646-1.29 5.53 5.53 0 1 1-9.147 4.19zm4.827-26.69a28.975 28.975 0 0 0 3.32 2.98 1.705 1.705 0 0 1-3.32-.54v-2.44zm1.43 24.69a1.716 1.716 0 0 1-.894-2.24c.187-.43.39-.86.62-1.28a5.56 5.56 0 0 1 3.16 1.33 12.53 12.53 0 0 0-.647 1.29 1.7 1.7 0 0 1-1.568 1.03 1.792 1.792 0 0 1-.676-.13zM8.506 20.42a27.38 27.38 0 0 0 7.662 18.83v2.44a1.705 1.705 0 0 0 3.32.54 27.178 27.178 0 0 0 16.542 5.7 27.456 27.456 0 0 0 15.23-4.61 1.705 1.705 0 0 0 3.22-.78v-1.72a27.406 27.406 0 0 0 9.084-20.4 1.7 1.7 0 0 1 1.7-1.7h4.538a1.7 1.7 0 1 1 0 3.4h-2.887A30.945 30.945 0 0 1 39.41 51.14a27.182 27.182 0 0 0-3.662-.24 28.417 28.417 0 0 0-3.37.2 31.442 31.442 0 0 1-27.23-28.98H1.693a1.7 1.7 0 1 1 0-3.4h5.11a1.71 1.71 0 0 1 1.702 1.7z"/></svg>