<svg xmlns="http://www.w3.org/2000/svg" width="68.125" height="64.65" viewBox="0 0 68.125 64.65">
  <defs>
    <style>
      .cls-1 {
        fill: #65aacd;
        fill-rule: evenodd;
      }
    </style>
  </defs>
  <path class="cls-1" d="M707.242,1456.47v7.11h-0.034c-0.3-1.26-2.555-2.44-6.216-3.41C704.926,1459.12,707.242,1457.84,707.242,1456.47Zm0-14.81v7.12h-0.034c-0.29-1.28-2.546-2.45-6.216-3.42C704.926,1444.32,707.242,1443.04,707.242,1441.66Zm0-14.67v7.26c0-1.44-2.546-2.77-6.837-3.84,3.865-.97,6.317-2.14,6.76-3.42h0.077Zm0-14.95v7.12h-0.137c-0.57-1.23-2.979-2.35-6.7-3.28C704.7,1414.82,707.242,1413.48,707.242,1412.04Zm-0.009,29.48a0.682,0.682,0,0,1,.009.14c0,1.38-2.316,2.66-6.25,3.7a75.443,75.443,0,0,0-10.821-1.85,73.212,73.212,0,0,0,11.349-1.99h5.713Zm0.009-7.27-6.113.04a76.894,76.894,0,0,0-12.362-2.03,80.146,80.146,0,0,0,11.638-1.85C704.7,1431.48,707.242,1432.81,707.242,1434.25Zm-6.113.04,6.113-.04a2.469,2.469,0,0,1-1.448,1.86A17.549,17.549,0,0,0,701.129,1434.29Zm6.079,14.49a1.073,1.073,0,0,1,.034.28,2.439,2.439,0,0,1-1.456,1.85,20.572,20.572,0,0,0-5.73-2.09Zm0,14.8a1.2,1.2,0,0,1,.034.29,2.454,2.454,0,0,1-1.448,1.86,20.688,20.688,0,0,0-5.772-2.1Zm0.025-22.06H701.52a17.655,17.655,0,0,0,4.266-1.71A2.592,2.592,0,0,1,707.233,1441.52Zm-0.025,7.26-7.152.04a81.262,81.262,0,0,0-9.885-1.61,75.443,75.443,0,0,0,10.821-1.85C704.662,1446.33,706.918,1447.5,707.208,1448.78Zm0,14.8-7.186.05a79.82,79.82,0,0,0-9.893-1.61,74.583,74.583,0,0,0,10.863-1.85C704.653,1461.14,706.91,1462.32,707.208,1463.58Zm0.034-37.02a1.234,1.234,0,0,1-.077.43h-6.76a18.357,18.357,0,0,0,5.6-2.14A2.248,2.248,0,0,1,707.242,1426.56Zm-0.077,29.48a1.234,1.234,0,0,1,.077.43c0,1.37-2.316,2.65-6.25,3.7a74.067,74.067,0,0,0-10.821-1.85,66.693,66.693,0,0,0,12.294-2.28h4.7Zm-6.76-29.05h6.76c-0.443,1.28-2.895,2.45-6.76,3.42a76.436,76.436,0,0,0-10.276-1.71A76.436,76.436,0,0,0,700.405,1426.99Zm6.76,29.05h-4.7a14.508,14.508,0,0,0,3.329-1.42A3.033,3.033,0,0,1,707.165,1456.04Zm-0.06-36.88a1.239,1.239,0,0,1,.137.57,2.248,2.248,0,0,1-1.235,1.71,19.7,19.7,0,0,0-5.985-2.24Zm0,0-7.083.04a79.82,79.82,0,0,0-9.893-1.61,74.871,74.871,0,0,0,10.276-1.71C704.126,1416.81,706.535,1417.93,707.105,1419.16Zm-67.9-7.55c1.158-3.34,15.93-5.98,33.979-5.98s32.821,2.64,33.979,5.98H639.207Zm33.979,19.93c5.611,0,10.915.26,15.581,0.72-4.666.45-9.97,0.71-15.581,0.71s-10.915-.26-15.58-0.71C662.271,1431.8,667.567,1431.54,673.186,1431.54Zm0,16.53a157.873,157.873,0,0,1-16.985-.86,170.125,170.125,0,0,1,33.97,0A157.969,157.969,0,0,1,673.186,1448.07Zm0,14.8a157.345,157.345,0,0,1-16.943-.85,169.287,169.287,0,0,1,33.886,0A157.441,157.441,0,0,1,673.186,1462.87Zm0-44.42a157.18,157.18,0,0,1-16.943-.86,169.287,169.287,0,0,1,33.886,0A157.276,157.276,0,0,1,673.186,1418.45Zm27.943,15.84-57.129.36a71.063,71.063,0,0,1,13.606-2.39c4.665,0.45,9.961.71,15.58,0.71s10.915-.26,15.581-0.71A76.894,76.894,0,0,1,701.129,1434.29Zm-27.943,35.99c-15.384,0-28.394-1.92-32.608-4.55a17.484,17.484,0,0,1,4.444-1.75l55-.35a20.688,20.688,0,0,1,5.772,2.1C701.58,1468.36,688.571,1470.28,673.186,1470.28Zm-28.2-21.11a72.871,72.871,0,0,1,11.213-1.96,168.157,168.157,0,0,0,33.97,0,81.262,81.262,0,0,1,9.885,1.61Zm0.034-29.62a73,73,0,0,1,11.221-1.96,167.328,167.328,0,0,0,33.886,0,79.82,79.82,0,0,1,9.893,1.61Zm0,44.43a71.8,71.8,0,0,1,11.221-1.96,169.287,169.287,0,0,0,33.886,0,79.82,79.82,0,0,1,9.893,1.61Zm11.221-46.39a74.871,74.871,0,0,1-10.276-1.71c6.215-1.55,16.091-2.56,27.219-2.56s21,1.01,27.219,2.56a74.871,74.871,0,0,1-10.276,1.71A169.287,169.287,0,0,0,656.243,1417.59Zm16.943,8.55c-12.132,0-22.775-1.2-28.811-2.99,6.036-1.8,16.679-2.99,28.811-2.99s22.775,1.19,28.811,2.99C695.961,1424.94,685.318,1426.14,673.186,1426.14Zm-15.58,6.12a80.14,80.14,0,0,1-11.639-1.85,76.436,76.436,0,0,1,10.276-1.71,169.287,169.287,0,0,0,33.886,0,76.436,76.436,0,0,1,10.276,1.71,80.146,80.146,0,0,1-11.638,1.85c-4.666-.46-9.97-0.72-15.581-0.72S662.271,1431.8,657.606,1432.26Zm-12.226,5.69c6.172-1.63,16.321-2.7,27.806-2.7s21.634,1.07,27.806,2.7c-6.172,1.64-16.321,2.71-27.806,2.71S651.552,1439.59,645.38,1437.95Zm0,7.41a75.443,75.443,0,0,1,10.821-1.85,170.125,170.125,0,0,0,33.97,0,75.443,75.443,0,0,1,10.821,1.85,75.443,75.443,0,0,1-10.821,1.85,170.125,170.125,0,0,0-33.97,0A75.443,75.443,0,0,1,645.38,1445.36Zm27.806,10.11c-11.485,0-21.634-1.07-27.806-2.7,6.172-1.64,16.321-2.71,27.806-2.71s21.634,1.07,27.806,2.71C694.82,1454.4,684.671,1455.47,673.186,1455.47Zm-27.806,4.7a74.067,74.067,0,0,1,10.821-1.85,168.157,168.157,0,0,0,33.97,0,74.067,74.067,0,0,1,10.821,1.85,74.583,74.583,0,0,1-10.863,1.85,169.287,169.287,0,0,0-33.886,0A74.583,74.583,0,0,1,645.38,1460.17Zm0.587-44.29c-4.291-1.06-6.836-2.4-6.836-3.84a1.275,1.275,0,0,1,.076-0.43h67.958a1.276,1.276,0,0,1,.077.43c0,1.44-2.546,2.78-6.837,3.84-6.215-1.55-16.091-2.56-27.219-2.56S652.182,1414.33,645.967,1415.88Zm-5.6,5.56a15.959,15.959,0,0,1,4.657-1.89l55-.35a19.7,19.7,0,0,1,5.985,2.24,15.232,15.232,0,0,1-4.01,1.71c-6.036-1.8-16.679-2.99-28.811-2.99s-22.775,1.19-28.811,2.99A15.232,15.232,0,0,1,640.365,1421.44Zm32.821,13.81c-11.485,0-21.634,1.07-27.806,2.7a18.947,18.947,0,0,1-4.8-1.84,14.683,14.683,0,0,1,3.422-1.46l57.129-.36a17.549,17.549,0,0,1,4.665,1.82,18.932,18.932,0,0,1-4.8,1.84C694.82,1436.32,684.671,1435.25,673.186,1435.25Zm-32.6,15.66a17.265,17.265,0,0,1,4.4-1.74l55.068-.35a20.572,20.572,0,0,1,5.73,2.09,18.426,18.426,0,0,1-4.794,1.86c-6.172-1.64-16.321-2.71-27.806-2.71s-21.634,1.07-27.806,2.71A18.426,18.426,0,0,1,640.586,1450.91Zm-1.447-31.33c0.17-1.39,2.682-2.66,6.828-3.7a74.871,74.871,0,0,0,10.276,1.71,73,73,0,0,0-11.221,1.96Zm17.1,42.44a71.8,71.8,0,0,0-11.221,1.96l-5.883.03a0.766,0.766,0,0,1-.008-0.14v-0.07c0.085-1.35,2.383-2.6,6.249-3.63A74.583,74.583,0,0,0,656.243,1462.02Zm-0.042-14.81a72.871,72.871,0,0,0-11.213,1.96l-5.849.03a0.766,0.766,0,0,1-.008-0.14v-0.07c0.076-1.35,2.383-2.6,6.249-3.63A75.443,75.443,0,0,0,656.2,1447.21Zm-17.062,16.8,5.883-.03a17.484,17.484,0,0,0-4.444,1.75A2.631,2.631,0,0,1,639.139,1464.01Zm0.068-29.33a1.275,1.275,0,0,1-.076-0.43c0-1.44,2.545-2.77,6.836-3.84a80.14,80.14,0,0,0,11.639,1.85A71.063,71.063,0,0,0,644,1434.65Zm6.76-4.27c-3.874-.96-6.317-2.14-6.76-3.42h6.76a76.436,76.436,0,0,0,10.276,1.71A76.436,76.436,0,0,0,645.967,1430.41Zm-0.587,14.95c-3.934-1.04-6.249-2.32-6.249-3.7a0.766,0.766,0,0,1,.008-0.14h5.713a73.234,73.234,0,0,0,11.349,1.99A75.443,75.443,0,0,0,645.38,1445.36Zm0,14.81c-3.934-1.05-6.249-2.33-6.249-3.7a1.233,1.233,0,0,1,.076-0.43h4.7a66.693,66.693,0,0,0,12.294,2.28A74.067,74.067,0,0,0,645.38,1460.17Zm-5.015-38.73a2.246,2.246,0,0,1-1.234-1.71,0.943,0.943,0,0,1,.008-0.15l5.883-.03A15.959,15.959,0,0,0,640.365,1421.44Zm-1.158,5.55a1.233,1.233,0,0,1-.076-0.43,2.246,2.246,0,0,1,1.234-1.71,18.11,18.11,0,0,0,5.6,2.14h-6.76Zm4.793,7.66a14.683,14.683,0,0,0-3.422,1.46,3.091,3.091,0,0,1-1.371-1.43Zm-3.414,5.16a17.655,17.655,0,0,0,4.266,1.71h-5.713A2.594,2.594,0,0,1,640.586,1439.81Zm4.4,9.36a17.265,17.265,0,0,0-4.4,1.74,2.616,2.616,0,0,1-1.447-1.71Zm-4.41,5.45a14.353,14.353,0,0,0,3.329,1.42h-4.7A3.033,3.033,0,0,1,640.578,1454.62Zm5.389-24.21c-4.291,1.07-6.836,2.4-6.836,3.84v-7.26h0.076C639.65,1428.27,642.093,1429.45,645.967,1430.41Zm-6.836,26.06c0,1.37,2.315,2.65,6.249,3.7-3.866,1.03-6.164,2.28-6.249,3.63v-7.33Zm0-7.48v-7.33c0,1.38,2.315,2.66,6.249,3.7C641.514,1446.39,639.207,1447.64,639.131,1448.99Zm0-29.41v-7.54c0,1.44,2.545,2.78,6.836,3.84-4.146,1.04-6.658,2.31-6.828,3.7h-0.008Z" transform="translate(-639.125 -1405.63)"/>
</svg>
