<svg xmlns="http://www.w3.org/2000/svg" width="71.5" height="70.59" viewBox="0 0 71.5 70.59">
  <defs>
    <style>
      .cls-1 {
        fill: #65aacd;
        fill-rule: evenodd;
      }
    </style>
  </defs>
  <path class="cls-1" d="M552.944,1423.73v39.13a10.216,10.216,0,0,1-10.216,10.21H491.644a10.216,10.216,0,0,1-10.216-10.21v-39.13a10.223,10.223,0,0,1,10.216-10.21h51.084A10.223,10.223,0,0,1,552.944,1423.73Zm-3.4,39.13v-39.13a6.822,6.822,0,0,0-6.811-6.81H491.644a6.822,6.822,0,0,0-6.811,6.81v39.13a6.816,6.816,0,0,0,6.811,6.81h51.084A6.816,6.816,0,0,0,549.539,1462.86Zm0-39.13v39.13a6.816,6.816,0,0,1-6.811,6.81H491.644a6.816,6.816,0,0,1-6.811-6.81v-39.13a6.822,6.822,0,0,1,6.811-6.81h51.084A6.822,6.822,0,0,1,549.539,1423.73Zm-14.584,20.72a17.479,17.479,0,1,0-17.479,17.47A17.488,17.488,0,0,0,534.955,1444.45Zm-3.3-34.94v4.01h-3.406v-4.01c0-1.81-.919-3.65-2.988-3.65h-14.9c-1.967,0-4.249,1.54-4.249,3.52v4.14h-3.406v-4.14c0-4.08,4.036-6.92,7.655-6.92h14.9C528.969,1402.46,531.66,1405.43,531.66,1409.51Zm-14.184,20.88a14.065,14.065,0,1,1-14.074,14.06A14.087,14.087,0,0,1,517.476,1430.39Zm8.25,15.31v-3.64H519.3v-6.48h-3.644v6.48h-6.437v3.64h6.437v6.39H519.3v-6.39h6.428Z" transform="translate(-481.438 -1402.47)"/>
</svg>
