<svg xmlns="http://www.w3.org/2000/svg" width="71.5" height="71.47" viewBox="0 0 71.5 71.47">
  <defs>
    <style>
      .cls-1 {
        fill: #65aacd;
        fill-rule: evenodd;
      }
    </style>
  </defs>
  <path class="cls-1" d="M848.772,1245.07a5.556,5.556,0,1,1-3.414,1.19,10.4,10.4,0,0,1,.706,1.37,1.678,1.678,0,0,0,2.069.93,2.129,2.129,0,0,0,.639,4.16,2.125,2.125,0,1,0,0-4.25,2.156,2.156,0,0,0-.63.09,0.466,0.466,0,0,0,.162-0.06,1.7,1.7,0,0,0,.885-2.24c-0.179-.41-0.366-0.8-0.579-1.18A0.882,0.882,0,0,1,848.772,1245.07Zm0.417,1.19a1.7,1.7,0,0,1-.885,2.24,0.466,0.466,0,0,1-.162.06h-0.009a1.678,1.678,0,0,1-2.069-.93,10.4,10.4,0,0,0-.706-1.37,5.4,5.4,0,0,1,3.252-1.18C848.823,1245.46,849.01,1245.85,849.189,1246.26Zm-0.272-20.78v1.72a1.705,1.705,0,0,1-3.219.78A27.813,27.813,0,0,0,848.917,1225.48Zm-0.307,19.6a5.4,5.4,0,0,0-3.252,1.18c-2.486-4.21-7.348-6.82-13.469-7.23v-1.62a1.707,1.707,0,0,0-.775-1.43q1.38-.03,2.733-0.18C840.565,1236.68,845.877,1239.99,848.61,1245.08Zm-16.721-7.67v1.62c-0.562-.05-1.124-0.06-1.7-0.06s-1.141.01-1.7,0.06v-1.62a1.707,1.707,0,0,1,.809-1.45q0.588,0.03,1.175.03c0.213,0,.434,0,0.647-0.01A1.707,1.707,0,0,1,831.889,1237.41Zm1.958-1.61q-1.353.15-2.733,0.18a1.74,1.74,0,0,0-.928-0.27,1.722,1.722,0,0,0-.894.25c-0.834-.03-1.66-0.1-2.477-0.2a28.417,28.417,0,0,1,3.371-.2A27.182,27.182,0,0,1,833.847,1235.8Zm-2.733.18c-0.213.01-.434,0.01-0.647,0.01q-0.588,0-1.175-.03a1.722,1.722,0,0,1,.894-0.25A1.74,1.74,0,0,1,831.114,1235.98Zm0.775,9.41a5.555,5.555,0,0,0-3.406-.1v-6.26c0.562-.05,1.124-0.06,1.7-0.06s1.141,0.01,1.7.06v6.36Zm-1.7,3.08a1.71,1.71,0,0,1-1.7-1.7v-1.48a5.555,5.555,0,0,1,3.406.1v1.38A1.71,1.71,0,0,1,830.186,1248.47Zm-5.679,2.13a5.564,5.564,0,0,1,3.976-5.31v1.48a1.7,1.7,0,0,0,3.406,0v-1.38A5.53,5.53,0,1,1,824.507,1250.6Zm7.663,0a2.129,2.129,0,1,0-2.129,2.12A2.128,2.128,0,0,0,832.17,1250.6Zm12.158-35.31H816.045l-1.516-27.22h31.314Zm-15.845,23.74c-6.2.41-11.1,3.08-13.562,7.38a5.56,5.56,0,0,0-3.159-1.33c2.767-5.16,8.19-8.5,15.053-9.32,0.817,0.1,1.643.17,2.477,0.2a1.707,1.707,0,0,0-.809,1.45v1.62Zm-14.473-14.38h31.5v2.55a1.707,1.707,0,0,0,.187.78,27.456,27.456,0,0,1-15.231,4.61,27.178,27.178,0,0,1-16.542-5.7,1.872,1.872,0,0,0,.085-0.54v-1.7Zm-1.277-39.99H847.64a1.692,1.692,0,0,1,1.234.54,1.669,1.669,0,0,1,.468,1.26l-1.7,30.63a1.7,1.7,0,0,1-1.7,1.6h-31.5a1.7,1.7,0,0,1-1.7-1.6l-1.7-30.63a1.672,1.672,0,0,1,.468-1.26A1.693,1.693,0,0,1,812.733,1184.66Zm3.312,30.63h28.283l1.515-27.22H814.529Zm-3.738,5.96h34.907a1.7,1.7,0,0,1,1.7,1.7v2.53a27.813,27.813,0,0,1-3.219,2.5,1.707,1.707,0,0,1-.187-0.78v-2.55h-31.5v1.7a1.872,1.872,0,0,1-.085.54,28.975,28.975,0,0,1-3.321-2.98v-0.96A1.7,1.7,0,0,1,812.307,1221.25Zm-6.53,29.35a5.54,5.54,0,0,1,5.534-5.53c0.153,0,.306.01,0.451,0.01-0.23.42-.434,0.85-0.621,1.28a1.716,1.716,0,0,0,.893,2.24,1.919,1.919,0,0,0-.723-0.13,2.14,2.14,0,1,0,.723.13,1.792,1.792,0,0,0,.673.13,1.7,1.7,0,0,0,1.567-1.03,12.531,12.531,0,0,1,.647-1.29A5.531,5.531,0,1,1,805.777,1250.6Zm4.827-26.69a28.975,28.975,0,0,0,3.321,2.98,1.705,1.705,0,0,1-3.321-.54v-2.44Zm1.43,24.69a1.716,1.716,0,0,1-.893-2.24c0.187-.43.391-0.86,0.621-1.28a5.56,5.56,0,0,1,3.159,1.33,12.531,12.531,0,0,0-.647,1.29,1.7,1.7,0,0,1-1.567,1.03A1.792,1.792,0,0,1,812.034,1248.6Zm-9.092-43.52a27.38,27.38,0,0,0,7.662,18.83v2.44a1.705,1.705,0,0,0,3.321.54,27.178,27.178,0,0,0,16.542,5.7,27.456,27.456,0,0,0,15.231-4.61,1.705,1.705,0,0,0,3.219-.78v-1.72a27.406,27.406,0,0,0,9.084-20.4,1.7,1.7,0,0,1,1.7-1.7h4.538a1.7,1.7,0,1,1,0,3.4h-2.887a30.945,30.945,0,0,1-27.508,29.02,27.182,27.182,0,0,0-3.661-.24,28.417,28.417,0,0,0-3.371.2,31.442,31.442,0,0,1-27.228-28.98H796.13a1.7,1.7,0,1,1,0-3.4h5.109A1.71,1.71,0,0,1,802.942,1205.08Z" transform="translate(-794.438 -1184.66)"/>
</svg>
