<svg xmlns="http://www.w3.org/2000/svg" width="71.218" height="71.312" viewBox="0 0 71.218 71.312"><defs><style>.cls-1 { fill: #65aacd; fill-rule: evenodd; }</style></defs><path class="cls-1" d="M67.113 23.76L51.365 67.91H19.837L4.087 23.76h63.026zM53.337 35.017a1.7 1.7 0 0 0-3.24-1.01l-6.784 21.8a1.7 1.7 0 0 0 1.11 2.123 1.76 1.76 0 0 0 .51.077 1.694 1.694 0 0 0 1.62-1.19zM37.3 56.025V33.948a1.7 1.7 0 1 0-3.39 0v22.077a1.7 1.7 0 1 0 3.386 0zm-10.515 1.9a1.7 1.7 0 0 0 1.11-2.123l-6.783-21.8a1.7 1.7 0 0 0-3.24 1.01l6.785 21.8a1.692 1.692 0 0 0 1.62 1.19 1.755 1.755 0 0 0 .503-.07zm44.123-36.842a1.672 1.672 0 0 1 .212 1.545l-16.96 47.55a1.684 1.684 0 0 1-1.595 1.128H18.637a1.682 1.682 0 0 1-1.594-1.13L.083 22.632a1.7 1.7 0 0 1 1.595-2.266H69.52a1.687 1.687 0 0 1 1.383.72zM51.37 67.91l15.748-44.153H4.088l15.75 44.155h31.53zM33.976 7.862a1.7 1.7 0 0 0 1.162 2.106L1.36 3.345A1.695 1.695 0 0 1 2.007.017L34.4 6.367zm1.162 2.106a1.7 1.7 0 0 1-1.162-2.106l.425-1.494 3.342.654-.51 1.774A1.69 1.69 0 0 1 35.6 10.03a2.257 2.257 0 0 1-.238-.016 2.085 2.085 0 0 1-.225-.044zm2.35-8.22a1.7 1.7 0 0 1 1.16 2.1l-.906 3.177-3.34-.654.982-3.455a1.7 1.7 0 0 1 2.098-1.164zm31.716 14.9l-33.837-6.64a2.257 2.257 0 0 0 .238.018 1.69 1.69 0 0 0 1.628-1.23l.51-1.775 32.105 6.292a1.7 1.7 0 0 1-.322 3.37 2.07 2.07 0 0 1-.327-.03z"/></svg>