<svg xmlns="http://www.w3.org/2000/svg" width="71.907" height="70.559" viewBox="0 0 71.907 70.559"><defs><style>.cls-1 { fill: #65aacd; fill-rule: evenodd; }</style></defs><path class="cls-1" d="M65.055 17.55v42.74a10.273 10.273 0 0 1-10.27 10.26h-37.65a10.273 10.273 0 0 1-10.27-10.26V17.55l3.424-1.647V60.29a6.852 6.852 0 0 0 6.845 6.84h37.65a6.852 6.852 0 0 0 6.847-6.84V15.902zm-.984-4.272l6.855 3.28a1.714 1.714 0 0 1-.736 3.26 1.734 1.734 0 0 1-.737-.17l-4.4-2.1v-2.58a1.72 1.72 0 0 0-1.044-1.572zm-2.438 1.69a1.712 1.712 0 0 1 3.423 0v2.58L61.632 15.9v-.93zm-13.22 19.34a2.114 2.114 0 0 0 3.02.01l1.823-1.8a2.147 2.147 0 0 0 .008-3.03l-5.434-5.45a2.2 2.2 0 0 0-3.03-.01l-1.814 1.81a2.134 2.134 0 0 0-.008 3.02zm-1.216 1.22l-5.434-5.46a2.19 2.19 0 0 0-3.02-.01l-16.38 16.29a5.69 5.69 0 0 0-1.462 3.19l-.376 5.04a1.885 1.885 0 0 0 .5 1.46 1.836 1.836 0 0 0 1.395.59h.144l5.057-.35a5.746 5.746 0 0 0 3.193-1.44l16.38-16.29a2.127 2.127 0 0 0 .623-1.52 2.07 2.07 0 0 0-.62-1.5zM61.632 15.9v44.387a6.852 6.852 0 0 1-6.846 6.84h-37.65a6.852 6.852 0 0 1-6.847-6.84V15.903L35.96 3.616zm-8.976 14.2l-5.437-5.46a1.276 1.276 0 0 0-.908-.37 1.308 1.308 0 0 0-.907.36l-1.823 1.82a1.28 1.28 0 0 0 0 1.81l5.434 5.46a1.333 1.333 0 0 0 1.814 0l1.814-1.81a1.28 1.28 0 0 0 .012-1.81zm-9.678-1.24a2.134 2.134 0 0 1 .008-3.02l1.814-1.81a2.2 2.2 0 0 1 3.03.01l5.433 5.45a2.147 2.147 0 0 1-.008 3.03l-1.823 1.8a2.114 2.114 0 0 1-3.02-.01zm-21.6 25.79a1.033 1.033 0 0 0 .266.81 1.01 1.01 0 0 0 .77.32h.085l5.057-.35a4.967 4.967 0 0 0 2.652-1.2l16.378-16.29a1.27 1.27 0 0 0 .368-.91 1.233 1.233 0 0 0-.368-.9l-5.434-5.46a1.3 1.3 0 0 0-1.814 0L22.96 46.95a5.046 5.046 0 0 0-1.214 2.65zm1.036 1.98a1.836 1.836 0 0 1-1.395-.59 1.885 1.885 0 0 1-.5-1.46l.375-5.04a5.69 5.69 0 0 1 1.463-3.19l16.38-16.29a2.19 2.19 0 0 1 3.02.01l5.433 5.46a2.07 2.07 0 0 1 .617 1.5 2.127 2.127 0 0 1-.624 1.52l-16.38 16.29a5.746 5.746 0 0 1-3.19 1.44l-5.058.35h-.136zM8.577 13.264a1.716 1.716 0 0 1 1.712 1.706v.93l-3.424 1.647V14.97a1.72 1.72 0 0 1 .9-1.5 1.738 1.738 0 0 1 .812-.21zm0 0a1.738 1.738 0 0 0-.813.2l-.06-.12L35.224.176a1.65 1.65 0 0 1 1.472 0l27.374 13.1-.06.12a1.71 1.71 0 0 0-2.378 1.574v.93L35.962 3.615l-25.673 12.29v-.935a1.716 1.716 0 0 0-1.712-1.71zm-7.582 3.3l6.71-3.212.06.12a1.72 1.72 0 0 0-.9 1.5v2.578l-4.4 2.1a1.71 1.71 0 0 1-1.47-3.09z"/></svg>