<svg xmlns="http://www.w3.org/2000/svg" width="71.532" height="70.625" viewBox="0 0 71.532 70.625"><defs><style>.cls-1 { fill: #65aacd; fill-rule: evenodd; }</style></defs><path class="cls-1" d="M71.525 40.844v3.4a10.22 10.22 0 0 1-10.217 10.21h-23.84v-1.7a1.706 1.706 0 0 0-1.7-1.7h25.543a6.818 6.818 0 0 0 6.812-6.807v-1.7h1.7a1.708 1.708 0 0 0 1.703-1.703zm0-26.374v26.374a1.708 1.708 0 0 0-1.7-1.7h-1.7V16.17h1.7a1.707 1.707 0 0 0 1.7-1.7zm0-4.254v4.254a1.708 1.708 0 0 0-1.7-1.7h-1.7v-2.552a6.818 6.818 0 0 0-6.81-6.806h-51.09a6.818 6.818 0 0 0-6.812 6.806v2.552h-1.7a1.707 1.707 0 0 0-1.7 1.7v-4.254A10.22 10.22 0 0 1 10.23.006h51.083a10.22 10.22 0 0 1 10.212 10.21zm-1.7 2.552a1.7 1.7 0 1 1 0 3.4h-1.7v-3.4h1.7zm0 26.374a1.7 1.7 0 1 1 0 3.4h-1.7v-3.4h1.7zm-1.7 3.4v1.7a6.818 6.818 0 0 1-6.81 6.806h-51.09a6.818 6.818 0 0 1-6.812-6.806v-1.7H68.12zm0-26.374v22.976H3.413V16.17H68.12zm0-5.955v2.552H3.413v-2.552a6.818 6.818 0 0 1 6.812-6.806h51.083a6.818 6.818 0 0 1 6.81 6.81zm-19.582 57a1.7 1.7 0 1 1 0 3.4H35.766a1.707 1.707 0 0 0 1.7-1.7v-1.7h11.068zm-11.068 0v1.7a1.703 1.703 0 0 1-3.406 0v-1.7h3.405zm0-12.76v12.76H34.07V54.456h3.405zm0-1.7v1.7H34.07v-1.7a1.7 1.7 0 0 1 3.4 0zm-27.244-1.7h25.542a1.707 1.707 0 0 0-1.7 1.7v1.7H10.225A10.22 10.22 0 0 1 .008 44.242v-3.4a1.707 1.707 0 0 0 1.7 1.7h1.7v1.7a6.818 6.818 0 0 0 6.817 6.81zM35.773 70.62H22.994a1.7 1.7 0 0 1 0-3.4h11.068v1.7a1.708 1.708 0 0 0 1.704 1.7zM3.412 39.144v3.4h-1.7a1.7 1.7 0 1 1 0-3.4h1.7zm0-22.97v22.97h-1.7a1.707 1.707 0 0 0-1.7 1.7V14.47a1.706 1.706 0 0 0 1.7 1.7h1.7zm0-3.4v3.4h-1.7a1.7 1.7 0 1 1 0-3.4h1.7z"/></svg>