<svg xmlns="http://www.w3.org/2000/svg" width="57.031" height="70.62" viewBox="0 0 57.031 70.62">
  <defs>
    <style>
      .cls-1 {
        fill: #65aacd;
        fill-rule: evenodd;
      }
    </style>
  </defs>
  <path class="cls-1" d="M843.056,1458.63l10.548,5.24a48.053,48.053,0,0,1-47.449.05l10.777-5,1.421-3.52,11.2,2.28,11.671-2.31Zm15.226,3.75-0.059,1.12a3.83,3.83,0,0,1-2,2.79,51.43,51.43,0,0,1-52.69.06l-0.17-.11a5.051,5.051,0,0,1-1.82-2.44l-0.306-1.36,13.049-6.06,1.982-4.89,1.633,0.33v2.08h3.4v-1.39l8.259,1.69,8.677-1.73v1.52h3.4v-2.2l1.352-.27,2.518,4.51Zm-4.678,1.49-10.548-5.24-1.829-3.26-11.671,2.31-11.2-2.28-1.421,3.52-10.777,5A48.053,48.053,0,0,0,853.6,1463.87Zm-6.363-52.34v14.1l-2.977-3.84c0.008,0.83,0,1.64-.026,2.42-13.321-5.82-23.155-2.83-27.884-.48,0-.52.008-1.03,0.017-1.55l-3.139,3.44a0.027,0.027,0,0,0-.017.01v-14.1a8.531,8.531,0,0,1,8.506-8.55h17.013A8.531,8.531,0,0,1,847.241,1411.53Zm-2.977,10.26,2.977,3.84c-1.021-.53-2.025-1-3-1.42C844.264,1423.43,844.272,1422.62,844.264,1421.79Zm-0.026,2.42c0.978,0.42,1.982.89,3,1.42a38.727,38.727,0,0,1-5.6,18.96V1444h-3.4v4.98c-0.23.23-.459,0.45-0.7,0.67a10.546,10.546,0,0,1-7.051,3.04c-0.256,0-.519-0.02-0.783-0.04a13.986,13.986,0,0,1-8.4-4.07V1444h-3.4v0.27c-2.943-4.82-4.687-11.36-4.687-18.64a0.027,0.027,0,0,1,.017-0.01,18.251,18.251,0,0,1,3.122-1.89c0.025,15.62,6.133,24.81,13.67,25.52a6.922,6.922,0,0,0,5.24-2.14C839.594,1443.19,843.881,1437.07,844.238,1424.21Zm-2.594,27.58v2.2h-3.4v-1.52Zm0-7.2v7.2l-3.4.68v-3.49A25.185,25.185,0,0,0,841.644,1444.59Zm0-.59v0.59a25.185,25.185,0,0,1-3.4,4.39V1444h3.4Zm-20.339,8.51v1.39h-3.4v-2.08Zm0-3.93v3.93l-3.4-.69v-7.55A21.618,21.618,0,0,0,821.305,1448.58Zm0-4.58v4.58a21.618,21.618,0,0,1-3.4-4.31V1444h3.4Zm-4.934-21.82c-0.009.52-.017,1.03-0.017,1.55a18.251,18.251,0,0,0-3.122,1.89Z" transform="translate(-801.25 -1402.97)"/>
</svg>
