<svg xmlns="http://www.w3.org/2000/svg" width="74.062" height="74" viewBox="0 0 74.062 74">
  <defs>
    <style>
      .cls-1 {
        fill: #65aacd;
        fill-rule: evenodd;
      }
    </style>
  </defs>
  <path class="cls-1" d="M671.031,191.953V195.5a8.305,8.305,0,0,1-5.957-4.931,27.012,27.012,0,0,1,3.432-.757A4.845,4.845,0,0,0,671.031,191.953Zm3.424,3.543v-3.543a4.8,4.8,0,0,0,2.508-2.145,25.6,25.6,0,0,1,3.441.775A8.307,8.307,0,0,1,674.455,195.5Zm25.018,25.256a26.1,26.1,0,0,1-.77,3.372,8.289,8.289,0,0,1-5.307-5.977h3.569A4.806,4.806,0,0,0,699.473,220.752Zm-6.12-6.012a8.288,8.288,0,0,1,5.3-6.139,24.364,24.364,0,0,1,.795,3.364,4.765,4.765,0,0,0-2.542,2.775h-3.552Zm-44.995,3.407H652a8.293,8.293,0,0,1-5.349,5.688,24.656,24.656,0,0,1-.728-3.372A4.828,4.828,0,0,0,648.358,218.147Zm3.826-3.407h-3.509a4.761,4.761,0,0,0-2.628-3.091,25.58,25.58,0,0,1,.839-3.346A8.278,8.278,0,0,1,652.184,214.74ZM671.031,195.5l0.026,19.244H652.184a8.278,8.278,0,0,0-5.3-6.437,27.132,27.132,0,0,1,18.188-17.738A8.305,8.305,0,0,0,671.031,195.5Zm3.475,41.393a8.29,8.29,0,0,1,6.06,5.356,26.016,26.016,0,0,1-3.364.783,4.819,4.819,0,0,0-2.7-2.58v-3.559Zm-0.025-18.742H693.4a8.289,8.289,0,0,0,5.307,5.977,27.134,27.134,0,0,1-18.137,18.121,8.29,8.29,0,0,0-6.06-5.356Zm-3.424,0,0.026,18.725a8.3,8.3,0,0,0-6.18,5.39,27.151,27.151,0,0,1-18.248-18.427A8.293,8.293,0,0,0,652,218.147h19.053Zm3.4-22.651a8.307,8.307,0,0,0,5.949-4.913A27.115,27.115,0,0,1,698.652,208.6a8.288,8.288,0,0,0-5.3,6.139H674.481Zm-3.372,41.376v3.534a4.817,4.817,0,0,0-2.808,2.631,27.557,27.557,0,0,1-3.372-.775A8.3,8.3,0,0,1,671.083,236.872Zm31.146-28.731a8.245,8.245,0,0,1,.043,16.426,30.2,30.2,0,0,0,.77-3.636,4.822,4.822,0,0,0-.025-9.162A30.151,30.151,0,0,0,702.229,208.141Zm0,0a30.151,30.151,0,0,1,.788,3.628,4.541,4.541,0,0,0-1.532-.256,4.786,4.786,0,0,0-2.038.452,24.364,24.364,0,0,0-.795-3.364,8.464,8.464,0,0,1,2.833-.494A7.408,7.408,0,0,1,702.229,208.141Zm0.813,12.79a30.2,30.2,0,0,1-.77,3.636,7.863,7.863,0,0,1-.787.034,8.358,8.358,0,0,1-2.782-.477,26.1,26.1,0,0,0,.77-3.372,4.664,4.664,0,0,0,2.012.443A4.717,4.717,0,0,0,703.042,220.931Zm-0.813-12.79a7.408,7.408,0,0,0-.744-0.034,8.464,8.464,0,0,0-2.833.494A27.115,27.115,0,0,0,680.4,190.583a8.222,8.222,0,0,0,.624-3.151c0-.119,0-0.239-0.008-0.358A30.731,30.731,0,0,1,702.229,208.141Zm-0.744,16.46a7.863,7.863,0,0,0,.787-0.034,30.735,30.735,0,0,1-21.286,21.246c0.025-.281.042-0.571,0.042-0.86a8.132,8.132,0,0,0-.462-2.708A27.134,27.134,0,0,0,698.7,224.124,8.358,8.358,0,0,0,701.485,224.6ZM681.02,187.074c0.008,0.119.008,0.239,0.008,0.358a8.222,8.222,0,0,1-.624,3.151,25.6,25.6,0,0,0-3.441-.775,4.683,4.683,0,0,0,.642-2.376,4.079,4.079,0,0,0-.146-1.124A30.806,30.806,0,0,1,681.02,187.074Zm0.008,57.879c0,0.289-.017.579-0.042,0.86a31,31,0,0,1-3.681.783,4.551,4.551,0,0,0,.3-1.643,4.814,4.814,0,0,0-.4-1.925,26.016,26.016,0,0,0,3.364-.783A8.132,8.132,0,0,1,681.028,244.953Zm-8.285-65.773a8.278,8.278,0,0,1,8.277,7.894,30.806,30.806,0,0,0-3.561-.766,4.856,4.856,0,0,0-9.441-.009,31.2,31.2,0,0,0-3.56.767A8.283,8.283,0,0,1,672.743,179.18Zm8.243,66.633a8.3,8.3,0,0,1-16.494.008,30.958,30.958,0,0,0,3.681.784,4.864,4.864,0,0,0,9.132-.009A31,31,0,0,0,680.986,245.813ZM668.018,186.3a4.182,4.182,0,0,0-.145,1.133,4.767,4.767,0,0,0,.633,2.376,27.012,27.012,0,0,0-3.432.757,8.128,8.128,0,0,1-.625-3.133c0-.119,0-0.247.009-0.366A31.2,31.2,0,0,1,668.018,186.3Zm0.257,56.738a4.771,4.771,0,0,0-.4,1.916,4.6,4.6,0,0,0,.3,1.652,30.958,30.958,0,0,1-3.681-.784c-0.026-.289-0.043-0.579-0.043-0.868a8.224,8.224,0,0,1,.454-2.691A27.557,27.557,0,0,0,668.275,243.037Zm-3.826-55.605a8.128,8.128,0,0,0,.625,3.133A27.132,27.132,0,0,0,646.886,208.3a8.168,8.168,0,0,0-2.893-.52c-0.231,0-.462.009-0.685,0.026a30.682,30.682,0,0,1,21.15-20.743C664.449,187.185,664.449,187.313,664.449,187.432Zm0.454,54.83a8.224,8.224,0,0,0-.454,2.691c0,0.289.017,0.579,0.043,0.868a30.713,30.713,0,0,1-21.423-21.6,8.175,8.175,0,0,0,.924.051,8.345,8.345,0,0,0,2.662-.434A27.151,27.151,0,0,0,664.9,242.262ZM646.886,208.3a25.58,25.58,0,0,0-.839,3.346,4.745,4.745,0,0,0-2.054-.459,4.542,4.542,0,0,0-1.523.255,29.87,29.87,0,0,1,.838-3.636c0.223-.017.454-0.026,0.685-0.026A8.168,8.168,0,0,1,646.886,208.3Zm-0.959,12.16a24.656,24.656,0,0,0,.728,3.372,8.345,8.345,0,0,1-2.662.434,8.175,8.175,0,0,1-.924-0.051,30.226,30.226,0,0,1-.728-3.653,4.62,4.62,0,0,0,1.652.3A4.883,4.883,0,0,0,645.927,220.463Zm-2.619-12.654a29.87,29.87,0,0,0-.838,3.636,4.814,4.814,0,0,0-.129,9.12,30.226,30.226,0,0,0,.728,3.653A8.24,8.24,0,0,1,643.308,207.809Z" transform="translate(-635.719 -179.188)"/>
</svg>
