<svg xmlns="http://www.w3.org/2000/svg" width="67.781" height="67.531" viewBox="0 0 67.781 67.531">
  <defs>
    <style>
      .cls-1 {
        fill: #65aacd;
        fill-rule: evenodd;
      }
    </style>
  </defs>
  <path class="cls-1" d="M813.437,861.925a7.207,7.207,0,1,1-7.206-7.222A7.214,7.214,0,0,1,813.437,861.925Zm14.414-14.443a7.207,7.207,0,1,1-7.207-7.222A7.214,7.214,0,0,1,827.851,847.482Zm36.033,14.443a7.207,7.207,0,1,1-7.207-7.222A7.214,7.214,0,0,1,863.884,861.925Zm-4.5-56.471,3.6,3.411-5.2,9.529-3.2.5-27.064,26.394-0.661.788-4.605-4.112,27.226-27.283,0.5-3.21ZM821.645,853.9l-9.008,9.529-7.408-7.523,9.81-9.83Zm-14.113-52.158c15.314-1.5,19.618,10.632,18.817,20.261l5,5.216-10.71,9.83-3.8-4.213c-13.612.4-21.92-7.222-20.619-19.96l9.008,9.228,9.109-2.006,2-8.627Zm32.83,35.307-8.508,9.027,19.5,20.7,5.328-1.737,4.2-6.018,0.516-2.525Z" transform="translate(-796.094 -801.625)"/>
</svg>
