<svg xmlns="http://www.w3.org/2000/svg" width="71.907" height="70.559" viewBox="0 0 71.907 70.559">
  <defs>
    <style>
      .cls-1 {
        fill: #65aacd;
        fill-rule: evenodd;
      }
    </style>
  </defs>
  <path class="cls-1" d="M701.836,1001.58v42.74a10.273,10.273,0,0,1-10.269,10.26H653.916a10.273,10.273,0,0,1-10.269-10.26v-42.74l3.423-1.646v44.386a6.852,6.852,0,0,0,6.846,6.84h37.651a6.852,6.852,0,0,0,6.846-6.84V999.934Zm-0.984-4.271,6.854,3.281a1.714,1.714,0,0,1-.736,3.26,1.734,1.734,0,0,1-.736-0.17l-4.4-2.1V999a1.719,1.719,0,0,0-1.044-1.573ZM698.413,999a1.712,1.712,0,0,1,3.423,0v2.578l-3.423-1.646V999Zm-13.221,19.338a2.114,2.114,0,0,0,3.021.01l1.823-1.8a2.147,2.147,0,0,0,.008-3.03l-5.434-5.45a2.2,2.2,0,0,0-3.029-.01l-1.814,1.81a2.134,2.134,0,0,0-.008,3.02Zm-1.215,1.22-5.434-5.46a2.19,2.19,0,0,0-3.02-.01l-16.379,16.29a5.689,5.689,0,0,0-1.463,3.19l-0.376,5.04a1.885,1.885,0,0,0,.5,1.46,1.836,1.836,0,0,0,1.395.59h0.145l5.057-.35a5.746,5.746,0,0,0,3.192-1.44l16.379-16.29a2.127,2.127,0,0,0,.624-1.52A2.07,2.07,0,0,0,683.977,1019.56Zm14.436-19.626v44.386a6.852,6.852,0,0,1-6.846,6.84H653.916a6.852,6.852,0,0,1-6.846-6.84V999.934l25.672-12.287Zm-8.976,14.2L684,1008.67a1.276,1.276,0,0,0-.907-0.37,1.308,1.308,0,0,0-.907.36l-1.823,1.82a1.279,1.279,0,0,0,0,1.81l5.434,5.46a1.333,1.333,0,0,0,1.814,0l1.814-1.81A1.279,1.279,0,0,0,689.437,1014.13Zm-9.678-1.24a2.134,2.134,0,0,1,.008-3.02l1.814-1.81a2.2,2.2,0,0,1,3.029.01l5.434,5.45a2.147,2.147,0,0,1-.008,3.03l-1.823,1.8a2.114,2.114,0,0,1-3.021-.01Zm-21.6,25.79a1.033,1.033,0,0,0,.266.81,1.01,1.01,0,0,0,.77.32h0.085l5.058-.35a4.967,4.967,0,0,0,2.652-1.2l16.379-16.29a1.271,1.271,0,0,0,.368-0.91,1.233,1.233,0,0,0-.368-0.9l-5.434-5.46a1.3,1.3,0,0,0-1.814,0l-16.379,16.28a5.046,5.046,0,0,0-1.215,2.65Zm1.036,1.98a1.836,1.836,0,0,1-1.395-.59,1.885,1.885,0,0,1-.5-1.46l0.376-5.04a5.689,5.689,0,0,1,1.463-3.19l16.379-16.29a2.19,2.19,0,0,1,3.02.01l5.434,5.46a2.07,2.07,0,0,1,.616,1.5,2.127,2.127,0,0,1-.624,1.52l-16.379,16.29a5.746,5.746,0,0,1-3.192,1.44l-5.057.35H659.2Zm-13.837-43.368A1.716,1.716,0,0,1,647.07,999v0.932l-3.423,1.646V999a1.72,1.72,0,0,1,.9-1.5A1.738,1.738,0,0,1,645.359,997.292Zm0,0a1.738,1.738,0,0,0-.813.2l-0.06-.119,27.52-13.169a1.65,1.65,0,0,1,1.472,0l27.374,13.1-0.06.12A1.709,1.709,0,0,0,698.413,999v0.932l-25.671-12.287L647.07,999.934V999A1.716,1.716,0,0,0,645.359,997.292Zm-7.582,3.3,6.709-3.212,0.06,0.119a1.72,1.72,0,0,0-.9,1.5v2.578l-4.4,2.1A1.711,1.711,0,0,1,637.777,1000.59Z" transform="translate(-636.781 -984.031)"/>
</svg>
